<mxfile host="app.diagrams.net" modified="2024-07-03T10:50:19.416Z" agent="Mozilla/5.0 (Macintosh; Intel Mac OS X 10_15_7) AppleWebKit/537.36 (KHTML, like Gecko) Chrome/125.0.0.0 Safari/537.36" etag="ecmoai71RbjAwC8cyj7r" version="24.6.3" type="github">
  <diagram name="Page-1" id="h3Y-sVIpnAGTc3geVcFo">
    <mxGraphModel dx="2970" dy="1158" grid="1" gridSize="10" guides="1" tooltips="1" connect="1" arrows="1" fold="1" page="1" pageScale="1" pageWidth="850" pageHeight="1100" math="0" shadow="0">
      <root>
        <mxCell id="0" />
        <mxCell id="1" parent="0" />
        <mxCell id="lYixQbPmd1vxgJkhePmT-1" value="" style="rounded=0;whiteSpace=wrap;html=1;dashed=1;dashPattern=12 12;" vertex="1" parent="1">
          <mxGeometry x="-480" y="310" width="1550" height="940" as="geometry" />
        </mxCell>
        <mxCell id="lYixQbPmd1vxgJkhePmT-2" style="vsdxID=1;fillColor=none;gradientColor=none;image;aspect=fixed;image=data:image/png,/9j/4AAQSkZJRgABAQAAAQABAAD/2wBDAAgGBgcGBQgHBwcJCQgKDBQNDAsLDBkSEw8UHRofHh0aHBwgJC4nICIsIxwcKDcpLDAxNDQ0Hyc5PTgyPC4zNDL/2wBDAQkJCQwLDBgNDRgyIRwhMjIyMjIyMjIyMjIyMjIyMjIyMjIyMjIyMjIyMjIyMjIyMjIyMjIyMjIyMjIyMjIyMjL/wAARCAHaAyADASIAAhEBAxEB/8QAHwAAAQUBAQEBAQEAAAAAAAAAAAECAwQFBgcICQoL/8QAtRAAAgEDAwIEAwUFBAQAAAF9AQIDAAQRBRIhMUEGE1FhByJxFDKBkaEII0KxwRVS0fAkM2JyggkKFhcYGRolJicoKSo0NTY3ODk6Q0RFRkdISUpTVFVWV1hZWmNkZWZnaGlqc3R1dnd4eXqDhIWGh4iJipKTlJWWl5iZmqKjpKWmp6ipqrKztLW2t7i5usLDxMXGx8jJytLT1NXW19jZ2uHi4+Tl5ufo6erx8vP09fb3+Pn6/8QAHwEAAwEBAQEBAQEBAQAAAAAAAAECAwQFBgcICQoL/8QAtREAAgECBAQDBAcFBAQAAQJ3AAECAxEEBSExBhJBUQdhcRMiMoEIFEKRobHBCSMzUvAVYnLRChYkNOEl8RcYGRomJygpKjU2Nzg5OkNERUZHSElKU1RVVldYWVpjZGVmZ2hpanN0dXZ3eHl6goOEhYaHiImKkpOUlZaXmJmaoqOkpaanqKmqsrO0tba3uLm6wsPExcbHyMnK0tPU1dbX2Nna4uPk5ebn6Onq8vP09fb3+Pn6/9oADAMBAAIRAxEAPwD3+iiigAooooAKKKKACiiigAooooAKKKKACiiigAoqrqWoW+k6Zc6hdMy29tG0shUZIUDJ471iDxlERkaF4gwf+oa9AHS0Vzf/AAmUX/QB8Qf+C16P+Eyi/wCgD4g/8Fr0AdJRXN/8JlF/0AfEH/gtej/hMov+gD4g/wDBa9AHSUVzf/CZRf8AQB8Qf+C16P8AhMov+gD4g/8ABa9AHSUVzf8AwmUX/QB8Qf8Agtej/hMov+gD4g/8Fr0AdJRXN/8ACZRf9AHxB/4LXo/4TKL/AKAPiD/wWvQB0lFc3/wmUX/QB8Qf+C16P+Eyi/6APiD/AMFr0AdJRXN/8JlF/wBAHxB/4LXo/wCEyi/6APiD/wAFr0AdJRXN/wDCZRf9AHxB/wCC16P+Eyi/6APiD/wWvQB0lFc3/wAJlF/0AfEH/gtej/hMov8AoA+IP/Ba9AHSUVzf/CZRf9AHxB/4LXo/4TKL/oA+IP8AwWvQB0lFc3/wmUX/AEAfEH/gtej/AITKL/oA+IP/AAWvQB0lFc3/AMJlF/0AfEH/AILXo/4TKL/oA+IP/Ba9AHSUVzf/AAmUX/QB8Qf+C16P+Eyi/wCgD4g/8Fr0AdJRXN/8JlF/0AfEH/gtej/hMov+gD4g/wDBa9AHSUVzf/CZRf8AQB8Qf+C16P8AhMov+gD4g/8ABa9AHSUVzf8AwmUX/QB8Qf8Agtej/hMov+gD4g/8Fr0AdJRXN/8ACZRf9AHxB/4LXo/4TKL/AKAPiD/wWvQB0lQ3V3b2Vu09zKsUS9WY1wGgfFi31i51e3n0TUbY6c8imYxExnacAMf4GPHymue1jxRea3IpuWVY0JKRIMBf8a7MJg5Yh36I5cTio0Fbqem2virR7y4EEd1tdjhd6lQT9TWzXgv2n3r0nw741t7yxNvPDO13bwbtsa72nCjnaB1b2rfF5f7KPPT1XUxw2OVSXLPR9DsaK878OfFaPxBd6nGPDmsxR2cqxqEtWkk5BzvA+4fbmug/4TKL/oA+IP8AwWvXmHoHSUVzf/CZRf8AQB8Qf+C16P8AhMov+gD4g/8ABa9AHSUVzf8AwmUX/QB8Qf8Agtej/hMov+gD4g/8Fr0AdJRXN/8ACZRf9AHxB/4LXo/4TKL/AKAPiD/wWvQB0lFc3/wmUX/QB8Qf+C16P+Eyi/6APiD/AMFr0AdJRXN/8JlF/wBAHxB/4LXo/wCEyi/6APiD/wAFr0AdJRXN/wDCZRf9AHxB/wCC16P+Eyi/6APiD/wWvQB0lFc3/wAJlF/0AfEH/gtemSeNreGJ5ZNE19Y0UszHTnwAOpoA6eiobO6ivrKC7gJMM8ayoSMEqwyP0NTUAFFFFABRRRQAUUUUAFFFFABRRRQAUUUUAFFFFABRRRQAUUUUAFFFFABRRRQAUUUUAFFFFABRRRQAUUUUAFFFFABRRRQAUUUUAFFFFABRRRQAUUUUAc947/5EHXv+vGX/ANBNb0P+pj/3RWD47/5EHXv+vGX/ANBNb0P+pj/3R/KgB9FFFABRRRQAUUUUAFFFFABRRRQAUUUUAFFFFABRRRQAUUUUAFFFFABRRRQAUUUUAFFFFABRRRQAUUUUAFFFFABRRRQBn6npFvqOj3WnBVhSdTyigYYnO7H15ryC78E+JrW4aJdPadQeJInUqw9eTkV7duXfs3DdjOM84pa7MLjamHTUdU+5yYnB08Q05aNdjwr/AIRHxP8A9Aif/vpf8a6zwN4P1Sy1ddT1OP7OsSsI4iwLMSMZOOgxmvSaK2q5pVqQcLJXMaWWUqc1O7dhixRrI8ixqJHxuYDlsdMnvT6KK809EKKKKACiiigAooooAKKKKACiiigAooooAKoa3/yANR/69Zf/AEE1fqhrf/IA1H/r1l/9BNAEPhj/AJFPRv8Arxg/9FrWrWV4Y/5FPRv+vGD/ANFrWrQAUUUUAFFFFABRRRQAUUUUAFFFFABRRRQAUUUUAFFFFABRRRQAUUUUAFFFFABRRRQAUUUUAFFFFABRRRQAUUUUAFFFFABRRRQAUUUUAFFFFABRRRQBz3jv/kQde/68Zf8A0E1vQ/6mP/dH8qwfHf8AyIOvf9eMv/oJreh/1Mf+6P5UAPooooAKKKKACiiigAooooAKKKKACiiigAooooAKKKKACiiigAooooAKKKKACiiigAooooAKKKKACiiigAooooAKKKKAOY1vSdTuvEEV1ZF44jBFDJLHIFYL56M4Hf7gaso6P4ljaaVJLpp3gSIP9pz8iXDkjG4fO0RXDcd8kGu8ooA4uDSvEskTG4vLxW22yJidVIXzSZScE/Ns2jOT7c0yPTfFQv7VJLmc2qMUyJQSE818lzuGSY9mDgkY7Hmu3ooAyPC9lcad4asbO7WUXEEeyTzZfMJI77snIPb2rXoooAKKKKACiiigAooooAKKKKACiiigAooooAKoa3/yANR/69Zf/QTV+qGt/wDIA1H/AK9Zf/QTQBD4Y/5FPRv+vGD/ANFrWrWV4Y/5FPRv+vGD/wBFrWrQAUUUUAFFFFABRRRQAUUUUAFFFFABRRRQAUUUUAFFFFABRRRQAUUUUAFFFFABRRRQAUUUUAFFFFABRRRQAUUVVkvAkjJ5ZO04zmmk3sJtLcoaxr8On74IjvusdMcL9axrDxNcrdoLqUPCxw2QBt9+Kqa9pV3LeXF7bqGicF2BYArgc/yrlLSY3ShhMQDIEwOcDqSfQY/OvXw+GpSpfmfO16uLliL35UnoujX6ns0ciSxq8bBkYZDA5Bp1eS2Gr3FtqenxRXk5gkkQiMuRgFuhH+c16d9uH/PI/nXDiMK6LWt7ntYfEqqtd0XKKp/bx/zyP50fbx/zyP51z8rN+ZFyiqf28f8API/nR9vH/PI/nRysOZFyiqf28f8API/nR9vH/PI/nRysOZGN8QbiC38Ba3500cXmWcqJvcLubaeBnqfat6yuIbqzimt5o5omXh42DKfoRXN+NNEtfGXha70W4TyzKA0Up58qQcq3+exNaOjQWuhaLZ6VZW5S3tYliQZHOO59yefxo5WHMjaoqn9vH/PI/nR9vH/PI/nRysOZFyiqf28f88j+dH28f88j+dHKw5kXKKp/bx/zyP50fbx/zyP50crDmRcoqn9vH/PI/nR9vH/PI/nRysOZFyiqf28f88j+dH28f88j+dHKw5kXKKrw3QmcrsK8Z61YpNWGncKKKKQwooooAKKKKACiimu2xGb0GaAFZgqlmICgZJPauV1PxQWcR2D7UHWQryfpntW1dXC3VrLAUZRIhXIPTIrzfWbO80iBZJwvll9iurdTiu/B0YTl7+55GZ1a6SjS0T3fb/I7jQteN27W93InmceWx43e31roa8djbBUtcOCQm1kBI3NkjHqAAckV0fgvWbmfUL2Oe4kuAiDGZNwznGRWuJwSSdSD26DwOJnFKlVd33/zO/oqn9vH/PI/nR9vH/PI/nXm8rPU5kXKKp/bx/zyP50fbx/zyP50crDmRcoqn9vH/PI/nR9vH/PI/nRysOZFyiqf28f88j+dH28f88j+dHKw5kXKKp/bx/zyP50fbx/zyP50crDmRcoqn9vH/PI/nR9vH/PI/nRysOZFyiqf28f88j+dH28f88j+dHKw5kXKKp/bx/zyP50fbx/zyP50crDmRcoqn9vH/PI/nR9vH/PI/nRysOZFyiqf28f88j+dH28f88j+dHKw5kXKKp/bx/zyP50fbx/zyP50crDmRcoqn9vH/PI/nR9vH/PI/nRysOZFyiqf28f88j+dH28f88j+dHKw5kXKKp/bx/zyP50fbx/zyP50crDmRcqhrf8AyANR/wCvWX/0E0/7eP8Ankfzqnq135ui6gnlkZtZec/7Bo5WHMh/hj/kU9G/68YP/Ra1q1geHLzZ4W0hfLJxYwc5/wCma1p/bx/zyP50crDmRcoqn9vH/PI/nR9vH/PI/nRysOZFyiqf28f88j+dH28f88j+dHKw5kXKKp/bx/zyP50fbx/zyP50crDmRcoqn9vH/PI/nVtG3oreozSaa3GmmLRRRSGFFFFABRRRQAUUUUAFFFFABRRRQAUUUUAFFFFABRRRQAUUUUAFFFFABWXP/wAfEn+9/QVqVlz/APHxJ/vf0FXT3InsQTRiaCSIkgOpUkdsjFcLe+Aks7VmsdQu3nPyhSAAR3zj2rvaK6qdapTTUHa5zVKNOo05q9jjdN8CWsUtretf3RljZXKMBjcO30rsu9FFKpWnVs5u46dGFO6grBRRRWZoFFFFAASACSQAOST2qnFq2m3EDTQ6jZyxI4jaRJ1ZVYnAUkHgk8Yql4t0u61rwnqem2TqlzcQ7U3NtDcg7SewIBH41yeo6JqGpWN1LZ+DoNLlj+ybUWeMS3HlTK7KAp2bQAcE4JPpSbGkegwXENyHMEqSiNzG+w52sOqn3FSYPpXmeraL4xn8xrd75IXvbyRY7e4VZBvZTC2d6jaBu4ycf3TWgNC8RNrv2ya4vmU6lCrBbvEZtTbhZTsBA+/ntnPIpXCx3akOoZCGU9CpyKWvKY/DHijT/DukWenW+oRXFm8okiF8PKkYyAq5PmAhdvTrjnKc5r1amncGgooopiCiiigAooooAKKKKALFl/x8H/dP9K0AQelcvrWjXevaXPYWWsXWlTOpxc2wBb6HPOPoQfeszwt4G1nRPDlrp0/izUFlh37vs6xFDlycgvGW5zk5J5zWU9zWGx3dFc5/wjep/wDQ3av/AN+7f/41R/wjep/9Ddq//fu3/wDjVQUdHRXOf8I3qf8A0N2r/wDfu3/+NUf8I3qf/Q3av/37t/8A41QB0dFc5/wjep/9Ddq//fu3/wDjVH/CN6n/ANDdq/8A37t//jVAHR1HMQYJP90/yrA/4RvU/wDobtX/AO/dv/8AGq57TvAOt6f401HXpvFt89pNtP2UBf3+EAPmcBR0/hXOO9NbgzrKy9d0OLXrKO2mnkhVJPMDRgZzgjv9a1KK6YTcJKUdzmlFTjyy2PPpvA/l30NvHf3bWXWR8DKk56Cuk0Dwvb+H55pYbqaYyoFIkAAABz2rdorWWJrTTjKV0zKOFowalGOqCiiisDcKKKKACiiigAooooAKjnuILWB57maOGFBlpJGCqv1J4FSVg+NNMn1nwjf6dbQefLOEAjJA3ASKTyfYGgDWn1CytSRPdwRMIjNh5AD5Y6tj+6PWp1IdFdSGVgCCOhFeaXfgTVNO1OW50+4uL+Q6TeWkM8jhWhBCC3iGT2Ab5u561pW2meIk1uaS4hv5Cw/c3CagFgji8gAIYs/M/mZ5wOud3apux2O7wfSkxxXmVx4e8WRaVp8cEmpzXJ04DcNR2m3viRmSTLfMmBjAyODxzmrs+k+MB4k1aaznuBHPbzLDNPcDyo3KAR7FDHjdngoCvqaLhY7y4uILOEzXU0cEQIBeVwq5PTk0STwxQvNJNGkUYJeRmAVQOuT2xXmp8KazqS2aXlrqC2MWqWky291qHmSIqqwncsGPBbaQM56kAZrQtvDF9a+B/Fujx2c32m7lujb+ZceYs6vkoVJY7eDg5xz69aLsLHbWeoWWoxtJY3lvdIpwzQSq4B9Dg1YwfSvNZNA8Q3P2+/0nS/7CuDpcdmsYljElzIHVmb5DtXChlBJz83aj+xPGKaXALWe+WWeWa1dLi5Xdb28m3Ev3m5QhsDcT83Wi7Cx6Bd6np9hJHHe39rbPL/q1mmVC/wBMnmrXbNedfEHwxqOr6jaGwsbu7t10ye0JheEEOxXbvMv8PHJHPvUg0rxWutW8sqXBCPbHfbXYW2jt1iAmh8snJZmzg4PUHIxRdhY9BxS4OcYrjPCmm+IbSw1WPVzdG5miH2SQ3Qfy02kLFntIp6uQQ2QcnFYEOieNF8PG2Zr7at7G7q1yDcTReWQ2P3uB8+Dw67uTgdKdwseo4PpUb3EMc8UDyos0wYxxk4ZwvXA74zXC23hvxDeJKmoahqEUg0dIoJRd4xc5flghwzAFOen1qGPSvGdzHDfuz2upXMd60kZnBjtWMSpAo5I6qTkdC3NK4WPRcHOMUleb3Oj+J5NEiis7fVrWJbpGuIJtRE08qeWQxU7xtHmYO3fz146V2+gw31v4fsIdSkeS9SFVmeRgzFvcjgn3FNMLGjRRRTEFVtR/5BN9/wBesv8A6Aas1W1H/kE33/XrL/6AaT2GtyvoH/ItaT/15Qf+i1rRrO0D/kWtJ/68oP8A0WtaNC2EwooopgFFFFABRRRQAVqw/wCoj/3R/KsqtWH/AFEf+6P5VE9i4bj6KKKyNAooooAKKKKACiiigAooooAKKKKACiiigAooooAKKKKACiiigAooooAKy5wftEnH8X9BWpXkHje4nj8W3ipPKqgJwrkD7orqwlH203G9tDix+KWGpqbV9bHpGD6GjB9DXi/2u5/5+Zv+/h/xo+13P/PzN/38P+Neh/Zz/m/A8n+24/yfj/wD2jB9DRg+hrxf7Xc/8/M3/fw/40fa7n/n5m/7+H/Gj+zn/N+Af23H+T8f+Ae0YPoaMH0NeL/a7n/n5m/7+H/Gj7Xc/wDPzN/38P8AjR/Zz/m/AP7bj/J+P/APaMH0NGD6GvF/tdz/AM/M3/fw/wCNH2u5/wCfmb/v4f8AGj+zn/N+Af23H+T8f+Ae0YPoaMH0NeL/AGu5/wCfmb/v4f8AGj7Xc/8APzN/38P+NH9nP+b8A/tuP8n4/wDAPaMH0NGD6GvF/tdz/wA/M3/fw/40fa7n/n5m/wC/h/xo/s5/zfgH9tx/k/H/AIB7Rg+howfQ14v9ruf+fmb/AL+H/Gj7Xc/8/M3/AH8P+NH9nP8Am/AP7bj/ACfj/wAA9owfQ0YPoa8X+13P/PzN/wB/D/jR9ruf+fmb/v4f8aP7Of8AN+Af23H+T8f+Ae0YPoaMH0NeL/a7n/n5m/7+H/Gj7Xc/8/M3/fw/40f2c/5vwD+24/yfj/wD2jB9DRg+hrxf7Xc/8/M3/fw/40fa7n/n5m/7+H/Gj+zn/N+Af23H+T8f+Ae0YPoaMH0NeL/a7n/n5m/7+H/Gj7Xc/wDPzN/38P8AjR/Zz/m/AP7bj/J+P/APcLIETn/dP9Kv15t8NZpZdTvhJLI4EK43MTjmvSa83E0vZVHC57ODrrEUVUStcKKKK5zqCiiigAooooAKZN/qJP8AdP8AKn1XvjjT7kj/AJ5N/I01uJuyuUMH0NGD6GvFhd3O0f6TN0/56H/Gl+13P/PzN/38P+Nez/Zz/m/A+d/tuP8AJ+P/AAD2jB9DRg+hrxf7Xc/8/M3/AH8P+NH2u5/5+Zv+/h/xo/s5/wA34B/bcf5Px/4B7Rg+howfQ14v9ruf+fmb/v4f8aPtdz/z8zf9/D/jR/Zz/m/AP7bj/J+P/APaMH0NGD6GvF/tdz/z8zf9/D/jR9ruf+fmb/v4f8aP7Of834B/bcf5Px/4B7Rg+howfQ14v9ruf+fmb/v4f8aPtdz/AM/M3/fw/wCNH9nP+b8A/tuP8n4/8A9owfQ0YPoa8X+13P8Az8zf9/D/AI0fa7n/AJ+Zv+/h/wAaP7Of834B/bcf5Px/4B7Rg+howfQ14v8Aa7n/AJ+Zv+/h/wAaPtdz/wA/M3/fw/40f2c/5vwD+24/yfj/AMA9owfQ0YPoa8X+13P/AD8zf9/D/jR9ruf+fmb/AL+H/Gj+zn/N+Af23H+T8f8AgHtGD6GjB9DXi/2u5/5+Zv8Av4f8aPtdz/z8zf8Afw/40f2c/wCb8A/tuP8AJ+P/AAD2jB9DRg+hrxf7Xc/8/M3/AH8P+NH2u5/5+Zv+/h/xo/s5/wA34B/bcf5Px/4B7Rg+howfQ14v9ruf+fmb/v4f8aPtdz/z8zf9/D/jR/Zz/m/AP7bj/J+P/APaMH0NGD6GvF/tdz/z8zf9/D/jR9ruf+fmb/v4f8aP7Of834B/bcf5Px/4B7Rg+howfQ14v9ruf+fmb/v4f8aPtdz/AM/M3/fw/wCNH9nP+b8A/tuP8n4/8A9owfQ0YPoa8X+13P8Az8zf9/D/AI0fa7n/AJ+Zv+/h/wAaP7Of834B/bcf5Px/4B7Rg+howfQ14v8Aa7n/AJ+Zv+/h/wAaPtdz/wA/M3/fw/40f2c/5vwD+24/yfj/AMA9owfQ0YPoa8X+13P/AD8zf9/D/jR9ruf+fmb/AL+H/Gj+zn/N+Af23H+T8f8AgHtGD6Gq2og/2Tfcf8usv/oBryD7Xc/8/M3/AH8P+NXNKuZ3vtrzysphmyC5IP7tqipgHGDlzbIulnEZ1Iw5N2lv/wAA9L0AH/hGtJ4/5coP/Ra1o4Poa8TgubhbW3VbiYAQxgASHA+UVJ9ruf8An5m/7+H/ABpxy9uKfN+Ap5zGMnHk28/+Ae0YPoaMH0NeL/a7n/n5m/7+H/Gj7Xc/8/M3/fw/41X9nP8Am/An+24/yfj/AMA9owfQ0YPoa8X+13P/AD8zf9/D/jR9ruf+fmb/AL+H/Gj+zn/N+Af23H+T8f8AgHtGD6GjB9DXi/2u5/5+Zv8Av4f8aPtdz/z8zf8Afw/40f2c/wCb8A/tuP8AJ+P/AAD2jB9DWpD/AKiP/dH8q8CN3c4P+kzf9/D/AI17zY82FsT/AM8l/kK48ZhnRS1vc9DL8csU5JRtYnooorhPTCiiigAooooAKKKKACiiigAooooAKKKKACiiigAooooAKKKKACiiigArxzx1/wAjhefSP/0AV7HXjnjr/kcLz6R/+gCvRyz+M/T9UeNnn+7r1X5MwrWH7TeQQbtvmyKm7GcZOM133/Crx/0Fj/34/wDsq4bS/wDkL2X/AF8R/wDoQr3uurH4ipSlFQdjhyjCUcRGTqxvb1PPf+FXj/oLH/vx/wDZUf8ACrx/0Fj/AN+P/sq9AlkSGJ5ZDhEUsx9AOtUU13S5JYolvoS8tr9sQZ+9Dx8/05Fef9exH834I9f+ysJ/J+L/AMzjf+FXj/oLH/vx/wDZUf8ACrx/0Fj/AN+P/sq7qzvre+g8+3ctEcEMVKhgQGBGRyMEc0tzd29oIzcSrH5sixJn+JmOAPxo+vYj+b8EH9lYT+T8X/mcJ/wq8f8AQWP/AH4/+yo/4VeP+gsf+/H/ANlXoOR60EgDJIxR9exH834IP7Kwn8n4v/M8+/4VeP8AoLH/AL8f/ZUf8KvH/QWP/fj/AOyr0Kij69iP5vwQf2VhP5Pxf+Z4d4g0j+wtXew8/wA7aitv27eo9K3NB8CjW9Ihv/7QMPmFhs8rdjBI659qrfED/kbZv+uUf8q7nwH/AMihaf7z/wDoRr0a+IqRw0Jp6u35HjYTCUamNqUpR91Xtv3Rhf8ACrx/0Fj/AN+P/sqP+FXj/oLH/vx/9lXoVFed9exH834I9n+ysJ/J+L/zPPf+FXj/AKCx/wC/H/2VH/Crx/0Fj/34/wDsq9ByPUUZHPI460fXsR/N+CD+ysJ/J+L/AMzz7/hV4/6Cx/78f/ZUf8KvH/QWP/fj/wCyrstR1zTdJeNL26WN5AWVApZio6thQTgZ69Kim8TaLBJAkmow/vkWRGXLLtY4Viw4AJ6EkZo+vYj+b8EH9lYT+T8X/mcl/wAKvH/QWP8A34/+yo/4VeP+gsf+/H/2VehUUfXsR/N+CD+ysJ/J+L/zPIvE3g8eHbCK5+3GffJ5e3y9uOCc9T6Vy9eofEv/AJAVr/18j/0E15fXsYKpKpS5pu7Pm8zo06OIcKasrI7n4Y/8hO//AOuK/wDoVemV5n8Mf+Qnf/8AXFf/AEKvTK8nMP47+R9DlH+6R+f5hRRRXEemFFFFABRRRQAVXv8A/kHXP/XJ/wCRqxVe/wD+Qdc/9cn/AJGnHdEy+FngK/dH0paRfuj6VraBocuv6g1pFOkLLGZNzgkcEDH619XOagnKWx8BTpyqSUIK7ZlUV3X/AArG9/6CVv8A9+2o/wCFY3v/AEErf/v21c/13D/zfmdn9l4v+T8V/mcLRXdf8Kxvf+glb/8AftqP+FY3v/QSt/8Av21H13D/AM35h/ZeL/k/Ff5nC0V3X/Csb3/oJW//AH7aj/hWN7/0Erf/AL9tR9dw/wDN+Yf2Xi/5PxX+ZwtFd1/wrG9/6CVv/wB+2o/4Vje/9BK3/wC/bUfXcP8AzfmH9l4v+T8V/mcLRXcP8M71EZjqVvgDP+rauMtYDdXcNuGCmWRYwx7ZOM1pTr06ibg72Ma2ErUWlUja+xFRXdf8Kxvf+glb/wDftqP+FY3v/QSt/wDv21Z/XcP/ADfmbf2Xi/5PxX+ZwtFd1/wrG9/6CVv/AN+2o/4Vje/9BK3/AO/bUfXcP/N+Yf2Xi/5PxX+ZwtFd1/wrG9/6CVv/AN+2o/4Vje/9BK3/AO/bUfXcP/N+Yf2Xi/5PxX+ZwtFd1/wrG9/6CVv/AN+2o/4Vje/9BK3/AO/bUfXcP/N+Yf2Xi/5PxX+ZwtFd1/wrG9/6CVv/AN+2o/4Vje/9BK3/AO/bUfXcP/N+Yf2Xi/5PxX+ZwtFd1/wrG9/6CVv/AN+2o/4Vje/9BK3/AO/bUfXcP/N+Yf2Xi/5PxX+ZwtFd1/wrG9/6CVv/AN+2rC8R+GJ/DgtjNcxzeeWA2KRjGPX61UMVRnLljLUirgMRSg5zjZL0MKiug8O+FJ/EVvPNDdRwiJwhDqTnjPatr/hWN7/0Erf/AL9tRPF0YS5ZS1CngMTUipwjdP0OForuv+FY3v8A0Erf/v21H/Csb3/oJW//AH7ap+u4f+b8y/7Lxf8AJ+K/zOForuv+FY3v/QSt/wDv21H/AArG9/6CVv8A9+2o+u4f+b8w/svF/wAn4r/M4Wr2kf8AIQH/AFxm/wDRTV1n/Csb3/oJW/8A37aprT4dXtpOZvt0EhEcihdhGSyFRz+NZ1cZQlTklLo+5th8txUasZShomu3f1PPIf8Aj2g/65J/6CKfXbQfDHUBbQh9QtlcRorKEJwQoB5qT/hWN7/0Erf/AL9tVQxtBRScvzJq5binOTUOr7f5nC0V3X/Csb3/AKCVv/37aj/hWN7/ANBK3/79tVfXcP8AzfmZ/wBl4v8Ak/Ff5nC0V3X/AArG9/6CVv8A9+2o/wCFY3v/AEErf/v21H13D/zfmH9l4v8Ak/Ff5nC0V3X/AArG9/6CVv8A9+2rG8ReE5/DttDNNdRzCV9gCKRjjPeqhi6M5csZakVMBiacXOcbJehzp+6fpXv1j/yD7b/rkv8AIV4Cfun6V79Y/wDIPtv+uS/yFcWa7R+Z6mQ/FU+X6liiiivGPpAooooAKKKKACiiigAooooAKKKKACiiigAooooAKKKKACiiigAooooAK8c8df8AI4Xn0j/9AFex14546/5HC8+kf/oAr0cs/jP0/VHjZ5/u69V+TMfS/wDkL2X/AF8R/wDoQr3uvBNMIGrWRJwBPH/6EK91+123/PxF/wB9itM0XvRMciaUJ+qJuowa87fwJqn2CWNLiBZluPs0D7jxYEMhU8fe2uxx0yorvvtdt/z8Rf8AfYo+123/AD8Rf99ivLsz3uZHIXXg6a71CdporeSzMtw8cTMSAHhjROMdijfTg1WTwlqv2+zlnitZpI57SZrx5iZI1jjVXjAxzlgW64O455ruPtdt/wA/EX/fYo+123/PxF/32KLMOZHBReD9agtN9stpBfWsEflOJmK3dwj7vNk44yNw7n5z6ClPga/is7i1LJcwQtGtmpmIby8mSTduVlJLt0YEEKPw7z7Xbf8APxF/32KPtdt/z8Rf99iizDmRV0O0uLHQ7K1uzF58UQR/KztyPTNaFQ/a7b/n4i/77FH2u2/5+Iv++xRZhzI8n+IH/I2zf9co/wCVdz4D/wCRQtP95/8A0I1wnj11k8VzMjKy+VHypyOldv4FuIY/CVqrzRq25+CwB+8a9XEr/Y4fL8j5/Atf2jV+f5o6ms7xBYzal4e1GxtyomuLd4kLHABIIHParf2u2/5+Iv8AvsUfa7b/AJ+Iv++xXlWZ9BzI5EeDXttV+12MNtBs1CCeIqxBSIRhZAPTcc5HfvWZZ+DNahjl82O12MLdpbUTfu7lo5GZwcL0YMOW3E4AJr0H7Xbf8/EX/fYo+123/PxF/wB9iizDmRy1no+q6PeR39jp1kxktfs72n2llEGJHddrlTkfOQRgdBjjis4+ENYs7aCGx+zLdCFUN7FO8ext7OyvHgrLGNx2g8gZHGc13X2u2/5+Iv8AvsUfa7b/AJ+Iv++xRZhzImoqH7Xbf8/EX/fYo+123/PxF/32KLMOZHIfEv8A5AVr/wBfI/8AQTXl9em/EiaKXQ7YRyo5FwOFYH+E15lXv5d/A+Z8jnH+9P0R3Pwx/wCQnf8A/XFf/Qq9MryPwNren6LqN29/O0QkiATETvnB5+6DXdf8J14d/wCf6T/wFl/+JrzMw/jv5fke5lH+6R+f5nRUVzv/AAnXh3/n+k/8BZf/AImj/hOvDv8Az/Sf+Asv/wATXEemdFRXO/8ACdeHf+f6T/wFl/8AiaP+E68O/wDP9J/4Cy//ABNAHRUVzv8AwnXh3/n+k/8AAWX/AOJo/wCE68O/8/0n/gLL/wDE0AdFVe//AOQdc/8AXJ/5GsX/AITrw7/z/Sf+Asv/AMTUN1428PTWk0S3z7njZRm1l6kf7lOO6FLZnkK/dH0rsPhx/wAjJL/17N/MVzkVvYwHzby+Q28aM0ghSXeQATgZTGc+tb3wovtP1nU5r/S7h5YVgKSRzRlJI2JHB/hP1Un8K93FYqjKnKEZa2PlMDgcRCtCpKDSTPW6xdS197HVV0+30u6vpvs5uX8hkG1A23+Jhk57CtqsPUtDvbnWl1Kw1QWcn2U2zg24k+XduyMkYP1BFeCfWEsPifRp47V1vox9qiWWINkEqw4z6E4OAeTg1JL4h0iGNHe/h2vGkqYOSyvnaQByc4P5GsaHwJZ2t7bS205EESwB45YxIWMP3SCTgE9+D7YqM+AoFi/dXredHdGe3aSPcsce1lWLAIyoDNjkHmgDYHibTN91vuFSGAQnzicrJ5gJXbjk5xTpPE+iReRv1O3AnQSRndwVJ259hnjJ6GspPBYtzE9rf+U8IgaLMClVkiVlztBA2lXIxxjqDVR/BN008lsmobLKezaC5kMQLys8zySYHRPvnB5xnpxmgDpJPEGkxTXEUl/Cr2ys8uWwFC/e56cZGfTvV22uYby2juLeQSQyDcjjoR61ysvgKCR78C82w3In2Awhnjab7x3E8jk4AA68k11wGFA9KAGzf6iT/dP8q8J0n/kNWP8A18x/+hCvdpv9RJ/un+VeE6T/AMhqx/6+Y/8A0IV6uXfBU/rueBnX8Sl6v9D3miiivKPfCqGuamNG0O91Iwmb7LC0vlhtu7A6Z7Vfqnq2mxaxpF3p07ukVzE0TMn3gCMZGaAMlPFH2O4mttbtBZTRwrMhikMyyqzhAFwoO7cVGMfxDFWI/FejyRSyC5YeUoZ1MTBhlzHjGM7t42kdQSPUVVm8HWt7FOdRvbm9uZVjQTyhAYwj71CqFC/eAJyDnvT4/CFgr6bI0szPYyvKMBUEpY7sMqgDAYKwAxgqKAJZvFFna65cabdJLF5QhxMEZkzKSFDEDC8gDk8k0o8W6NmTNw6ogJ8xoXCMoYIzK2MMqsRkjgdenNJfeGIL/U5bx7y6SOcwme3Qrsk8olkzxkcnnBGelVv+EKsipiku7t7ZUeKKEsu2OJ2DSICBkhsBeSTt4FAFpfFmjNLDGLlv323a/lNtG9iqFjjADEfLnr+NWtL12w1kyiykdxH/ABNEyqwyRlSRgjII49Kyo/BGnw3kFwk02Ygi4ZUYskbExruKkgLnHBBIAzV3SPDkGkX91eR3E80twAreZtHAJIJ2gbm5+8cnGOaANmiiigArz34ofd0z6yf+y16FXnvxQ+7pn1k/9lrrwP8AvEf66Hn5r/uk/l+aJ/hj/wAg2/8A+uy/+g13dcJ8Mf8AkG3/AP12X/0Gu7pY3+PIrLP90h/XUKKKK5TuM7XtUbRNDutRS2a6aBQVgVgpkJIAAJ4HWs6Pxlp0krE71txaxTiTBLFnkaPy9gGd4ZcY9eK1tU06LVdOlspmdY5NuSh54YH+lY134H0m7vtRuz5qSX3lM6ggoskbFg6qQRkk854PcUAObxtpK3UceLkwvA8zTiBtkexwjK/GVIY856VYfxdoiCcte48iaSGT92xw6AFh056gZHUkAc1CnhGzWOJDPMVEE1vKNqASpKcsCAoAwQCNuOlQR+A9KjRlMlyxNoltvMgzlWDeb0++SFJPsKALy+KdLdoo1efz5ZWhEBt3EiuqhiGXGV+Ug5PGDmq1l4vs76xsblNqeeUEqtuIRmiaTYGC4ZgF5HGPrxU9r4Yt7e9W+kurie83vJJM+0GQsipyAAAAqgACqtn4I0+wtbe0t57lbaBhIkW4bQ/ltGzdOCwYkgcZGe5yAWYPF+j3EHmxSznPlbENtIHkEgJQqpGWB2tyPQ1paZqEOq6dDfW6uIZl3J5gwcZ7jtXOat4LW4s4I7OZt0SW0TLI+3dHDv24YKcNl8k4PToOtb2iWdxp+jW1pdSRSSxLtJiQKuM8AAAdBgZwM4zgUAaFFFFABXC/E7/kGWH/AF3P/oJruq4X4nf8gyw/67n/ANBNdWD/AI8ThzL/AHSfp+p5mfun6V79Y/8AIPtv+uS/yFeAn7p+le/WP/IPtv8Arkv8hXfmu0fmeTkPxVPl+pYooorxj6QKKKKACiiigAooooAKKKKACiiigAooooAKKKKACiiigAooooAKKKKACvHPHX/I4Xn0j/8AQBXsdeOeOv8AkcLz6R/+gCvRyz+M/T9UeNnn+7r1X5MwIYnnnjhjALyMEUE9ycCui/4QDxB/z6w/9/lrE0v/AJC9l/18R/8AoQr3uu3G4qdBpR6nmZZgKWKjJ1L6djx//hAPEH/PrD/3+Wj/AIQDxB/z6w/9/lr2CiuH+063kep/YmG7v7/+AeP/APCAeIP+fWH/AL/LR/wgHiD/AJ9Yf+/y17BRR/adbyD+xMN3f3/8A8f/AOEA8Qf8+sP/AH+Wj/hAPEH/AD6w/wDf5a9goo/tOt5B/YmG7v7/APgHj/8AwgHiD/n1h/7/AC0f8IB4g/59Yf8Av8tewUUf2nW8g/sTDd39/wDwDwXUtMudIvWs7xFSZVDEKwIwenIrQ07wjq+q2SXlpbxvC+QpaQA8HHSrnxA/5G2b/rlH/Ku58B/8ihaf7z/+hGu6tipww8ai3djysNgaVXFzoyvZX/M4T/hAPEH/AD6w/wDf5aP+EA8Qf8+sP/f5a9gorh/tOt5Hq/2Jhu7+/wD4B4//AMIB4g/59Yf+/wAtH/CAeIP+fWH/AL/LXsFFH9p1vIP7Ew3d/f8A8A8f/wCEA8Qf8+sP/f5aP+EA8Qf8+sP/AH+WvYKKP7TreQf2Jhu7+/8A4B4//wAIB4g/59Yf+/y0f8IB4g/59Yf+/wAtewUUf2nW8g/sTDd39/8AwDxDVfDOp6JbpcX0MaRu2wFZA3PXt9Kya9Q+Jf8AyArX/r5H/oJry+vVwlaValzy3PBzDDww9f2cNjufhj/yE7//AK4r/wChV6ZXmfwx/wCQnf8A/XFf/Qq9Mrx8w/jv5H0eUf7pH5/mFFFFcR6YUUUUAFFFFABVe+ONPuSOvlN/I1Yqvf8A/IOuf+uT/wAjTjuiZfCzwq2vri3lWVZC5AI2yEspBBBBHfg11Pw4cnxC0YwscdqwSNFCqgyOAo4Fcav3R9K7D4cf8jJL/wBezfzFfR4yMfZSlbWx8Zl05fWIRvpc9Wooor5s+1MXxJq02kW1k0D20ZubxLdpbnOyMMG54I549a5pvHV99k87bYqYoDLtO7/TSJnjxDz3CBh9776j3rtrzT7XUBCt1CJVhkEqBugYAjPvwTwalNvAfLzDGfK/1eVHyfT0oA459f1eXUbBzdWdrZvq89mymIkukayYBYtwxKDp3x16Vnw+NrzUJYUaWCKIzWc3mwnaBHJMUKNliegHJCnnoK9BaCJl2tEhXduwVGN2c5+uaaLS2Csot4gG5YbBzznn8aAJqKKKAGTf6iT/AHT/ACrwjSzjV7Ij/n4T/wBCFe7zf6iT/dP8q8H0z/kLWf8A18J/6EK9XLfhqf13PAzr+JS9X+h7SbmbJ/efoKT7VP8A89P0FRnqaSuHlR7N2S/ap/8Anp+go+1T/wDPT9BUVFHKg5mS/ap/+en6Cj7VP/z0/QVFRRyoOZkv2qf/AJ6foKPtU/8Az0/QVFRRyoOZkv2qf/np+go+1T/89P0FRUUcqDmZL9qn/wCen6Cj7VP/AM9P0FRUUcqDmZL9qn/56foK4j4iyPImnb2zhpO3sK7KuK+IX+r0/wD3pP5CunBpe3j/AF0OHM2/qs/l+aLPw8lePTr3Y2MzDt/s12P2qf8A56foK4v4f/8AIOvf+uw/9BrsUUu6qOCTili0vbSbHlzf1aH9dR/2qf8A56foKPtU/wDz0/QVL9hk/vrR9hk/vrXLeJ32kRfap/8Anp+go+1T/wDPT9BUv2GT++tH2GT++tF4haRF9qn/AOen6Cj7VP8A89P0FS/YZP760fYZP760XiFpEX2qf/np+go+1T/89P0FS/YZP760fYZP760XiFpEX2qf/np+go+1T/8APT9BUv2GT++tH2GT++tF4haRF9qn/wCen6Cj7VP/AM9P0FS/YZP760fYZP760XiFpEX2qf8A56foK4/4hyvJpllvbOJz2/2a62SMxSFCQSPSuP8AiB/yDLP/AK7n/wBBrpwiXtotHDmLf1aaZ5+fun6V79Y/8g+2/wCuS/yFeAn7p+le/WP/ACD7b/rkv8hXXmu0fmebkPxVPl+pYooorxj6QKKKKACiiigAooooAKKKKACiiigAooooAKKKKACiiigAooooAKKKKACvHPHX/I4Xn0j/APQBXsdeOeOv+RwvPpH/AOgCvRyz+M/T9UeNnn+7r1X5Mx9L/wCQvZf9fEf/AKEK9l8UNMvhfU2t4/NmFu+xNm/ccdNvf6V41pf/ACF7L/r4j/8AQhXvdaZp8UTHIfgn6o841COQtqokivz4lN4Tp7osm0JkeXtI+QR7fvA/7WasaSskHjUbI7q4eW4n855Y5Y5IF+YjecmOSPgBcYIyvoa7+ivKPfPOI7++tfiHLdva3TrcXH2TyQJALdMqoldsbWRguVA6MxyeSRZ8R2t9f661tFZpLEdRt+JFZI3XyJM72UZIBx9Diu+ooA87W51/QdQsNKSeadIpIVdfJJjdJJTuCsQzFUUgAllxtGc5qnJda/qPmyibUHu/7NcXEMduYvIbz498cZwMtsDY5J7g816hRQB5teQW0pvV0U6jb6O1rGLl44JWUS+apGEbDMNu7zNvO0+tdL4LdzpVwhtzFElywidTJ5ci4B3RrJ8yrkkY6ZBwcV0lFAHkPxA/5G2b/rlH/Ku58B/8ihaf7z/+hGuG+IH/ACNs3/XKP+Vdz4D/AORQtP8Aef8A9CNetif9zh8vyPn8D/yMavz/ADR0tY3ii4vIdBmj0+N5L25K28IXjDOcbiewAyc+1bNFeSfQHn1nL4gtraDRY2ubI2f2lTIEFwWRVV4fnYYPDbSepKkUyTU9Z1DUNOW6kuoW+12Li1jtSEaMorO7PjIw5YEZwNuCOc16JRQB52+seJYdLtJZrm5FxLZNcRBbIHzrndgQMAvyjGPQncTnimalf6vHFqMBNxZQSvelXt7Te0sgVNicKeuXO7qcdRivR6KAKekBxotgJAwcW8e4N1ztGc+9XKKKAOK+Jf8AyArX/r5H/oJry+vUPiX/AMgK1/6+R/6Ca8vr6DLv4HzZ8hnP+9P0R3Pwx/5Cd/8A9cV/9Cr0yvM/hj/yE7//AK4r/wChV6ZXmZh/HfyPcyj/AHSPz/MKKKK4j0wooooAKKKKACq9/wD8g65/65P/ACNWKr3/APyDrn/rk/8AI047omXws8BX7o+lT213c2cpktZ5IZCMFo22nHpUC/dH0pa+taT0Z+fJtao0f7e1j/oKXn/f40f29rH/AEFLz/v8azqKj2UOyNPb1f5n97NH+3tY/wCgpef9/jR/b2sf9BS8/wC/xrOoo9lDsg9vV/mf3s0f7e1j/oKXn/f40f29rH/QUvP+/wAazqKPZQ7IPb1f5n97NH+3tY/6Cl5/3+NH9vax/wBBS8/7/Gs6ij2UOyD29X+Z/ezQOvauRg6pd4/66modM/5C1l/13T/0IVVq1pn/ACFrL/run/oQpSjGMXZDhOUpx5nfU9jPU1zaeL4pJAkdjK7k4CqwJNdI3Rvoa8m0fUbvR9S+2XGnXbQqCrYjZcA98kV5WEowqRk5K7R9Xi68qTil1O1k8XxROUksZkdTgqzAEVr6jqKadYfa3jLrlRtBx1rzDVtQvNWvmu7ewvPKYAKTGzEj1yBXceMBMfCwEMUkkm+L5UUk/kK1q4anGVNW3319DKjipzhOT6Do/Fayq7R6fO6oMsVYED68VPpviSHUr1bZLd0ZgTuLA9BXHaR4jl0jTpbO502982Ri0RUFdxOOORTvB4vT4niaa0uI02SEs8ZAHHqRWlTC01Gbta22pnTxlSU4x7+R6VWVq2uxaTNFHJC0hkUsCGAxzitWuD8fLdG/svs9vNKvktkxoWwd3tXDhacalVRlsduJqOnTcom0fFarCJjp84iY4Dlhgn64rR0jV49XSVo4mj8sgHJBzmuFvPEkt3oqaXHpt4t0iBXXBIAGOcYzW38PxcC3vvtEEsR8xMeYhXPB9a6q2GhGi52s15nLQxU51VB7f8Avz+LIYbqS3+ySMyOU4cckHFJL4sSB9k1hNG/912AP8q42a5vdP8Uz3Z0+6liiuXbAjYAjJ5BxSa5rFxrlyk9nYXpiQFQzIWz+XSto4Ok2lbRre5jLG1Ff17HqFrOLq0iuFUqJEDAHtmuP+IX+r0//AHpP5Cum0MONBsBIrK/kLuVhgg4rmfiF/q9P/wB6T+QriwySxKS7v9TozB3wcn5L80TfD/8A5B17/wBdh/6DXZwf8fEf+9XGfD//AJB17/12H/oNdnB/x8R/71Z4z+LI0y3/AHaH9dTUrlbzx3p9iNaWW3uPP0xtqwgDddfKD+79eTg+mMniuqrDl8K2E6X/AJo3zXTzOkzKC0HmxiNth7cCuA9MP+Eq06GOSS6mWILIEVV3SOcxrIcqoyMBsnqAOc1I/ijRo3lU3qs0WwMERm5cAoBgfMSCCAMnFUz4RWK5+12eoz292HJWUIrYUxJGVwRjpGpz2PtxUsnhdG8yRL6dbk3Ud3HMwVisiRCLkYwcqDn69qALK+JtGeS2jS+RmuQGj2qx4LbRu4+X5gV5xyMVUv8Axpo9np97dRzPctaoXMUUbZkw235TjDDcQCRkDvVf/hCYBJZOt/OGt3MjPsXe7mQyMQwGV3MSCBxjjHej/hCIGtjbPf3DQRwPb2qbVHkRs6sRnHzH5FGT2H40Aamja9ba012kMc0ctpIIplljZQGKhuCQM9f88VVsfGOkXkEzyT/ZmhErSLKCMLG5RiDjB5xwM4yKsJ4dtPtt3PcAXEc9yt0kUqA+VKFC7lP0UfSqM3gy0ntIbd7qfEKTqrDGQZZVl3dOqsox+tAFxvFeipAkzXuAzsm0xPvUqAW3LjcuAQSSOAQajTxdpLG83STR/Zbn7Md0D5kfbu+QAZbjnj0z0qleeClvoJfP1KVrmeUyzTeUnJ2BAVGPkKqowQc9c5p154Lgu3kc3khJuRdRebGsgR/L8ts5+8CoHXoaALV74v0m0EAjn+0yTGHYsIJGJXCqS2MDrnBOSAa3q5b/AIQqKPZHBqE8VuTbtNEsaYkaEgqeny52gED07V1NAGbd/wDHy30FcX8QP+QZZ/8AXc/+g12l3/x8t9BXF/ED/kGWf/Xc/wDoNd2D/ixPNzL/AHeZ5+fun6V79Y/8g+2/65L/ACFeAn7p+le/WP8AyD7b/rkv8hXXmu0fmebkPxVPl+pYooorxj6QKKKKACiiigAooooAKKKKACiiigAooooAKKKKACiiigAooooAKKKKACvHPHX/ACOF59I//QBXsdeOeOv+RwvPpH/6AK9HLP4z9P1R42ef7uvVfkzAid4pkkjJEiMGUjsR0rc/4SrxN/z+3P8A36H+FZWl/wDIXsv+viP/ANCFe91242vGk0pQUjzMswk68ZOFRxt2/wCHR4z/AMJV4m/5/bn/AL9D/Cj/AISrxN/z+3P/AH6H+FezUVxfXaf/AD6X9fI9P+y63/P+X4/5njP/AAlXib/n9uf+/Q/wo/4SrxN/z+3P/fof4V7NRR9dp/8APpf18g/sut/z/l+P+Z4z/wAJV4m/5/bn/v0P8KP+Eq8Tf8/tz/36H+FezUUfXaf/AD6X9fIP7Lrf8/5fj/meM/8ACVeJv+f25/79D/Cj/hKvE3/P7c/9+h/hXs1FH12n/wA+l/XyD+y63/P+X4/5ngd/e3d/dm4vpHknIALOuDgdKvWOv65Y2iW9ldTxwLnaqRgjk5POK0PH/wDyNs3/AFyj/lXc+A/+RQtP95//AEI13Vq8Y4eM3BNO2h5eGws54udJVGmr69Xr6nn3/CVeJv8An9uf+/Q/wo/4SrxN/wA/tz/36H+FezUVw/Xaf/Ppf18j1P7Lrf8AP+X4/wCZ4z/wlXib/n9uf+/Q/wAKP+Eq8Tf8/tz/AN+h/hXs1FH12n/z6X9fIP7Lrf8AP+X4/wCZ4z/wlXib/n9uf+/Q/wAKP+Eq8Tf8/tz/AN+h/hXs1FH12n/z6X9fIP7Lrf8AP+X4/wCZ4z/wlXib/n9uf+/Q/wAKP+Eq8Tf8/tz/AN+h/hXs1FH12n/z6X9fIP7Lrf8AP+X4/wCZ4bqWtavqUCxahcTSRK25Q6ADP5VmV6h8S/8AkBW3/XyP/QTXl9ephKiqU+ZKx4WYUZUa3JKXM+7O5+GP/ITv/wDriv8A6FXpleZ/DH/kJ3//AFxX/wBCr0yvHzD+O/kfR5R/ukfn+YUUUVxHphRRRQAUUUUAV7+9h03T7m+uSRBbxNLIVGSFUZPH4Vzk/jCG4spFXQ9fCyRkBjpz4wR1rQ8Y/wDIla5/14Tf+gGrZ/5F7/t1/wDZKcd0KWzPFRZxAD5r7/wAf/Gl+yRf3r7/AMAH/wAaoqBtHA6UuB6CvpfZ1v5/wR8R7bD/APPr/wAmZd+yRf3r7/wAf/Gj7JF/evv/AAAf/GqWB6CjA9BR7Ot/P+CD22H/AOfX/kzLv2SL+9ff+AD/AONH2SL+9ff+AD/41SwPQUYHoKPZ1v5/wQe2w/8Az6/8mZd+yRf3r7/wAf8Axo+yRf3r7/wAf/GqWB6CjA9BR7Ot/P8Agg9th/8An1/5My79ki/vX3/gA/8AjR9ki/vX3/gA/wDjVLA9BRgego9nW/n/AAQe2w//AD6/8mZd+yRY+9ff+AD/AONGn6jYXXjhNHg03U7aS2eBjPJCTG2VViXB5jyScHkEY6VS2j0FaVnd3Fzq1iJpWYLNEAOg4IA4HsAM1nUpVrX5/wADejiMMnZ0tXa2rPXT1NQXduLy3aCRj5b8MPUVOeppK8U+qILWFLKBbdJAI0+6pIGKm8xR/Gv/AH0K888U3Sp4nliZgoIjBJ7ZAqXxFZ2mlW1u8DNubglnDB/cV3QwSaj73xeX/BOGeOUW1bY7K706K+mimlclojmMj+E1dy2OWyfWsHwfL53h6N/+mjj9a3q5KlP2c3HsdkJ88FLuFGSOhxRRUFFJNOiiv3vhIRO/DMQOR6VcMin+Nf8AvoVieLpfJ8OzP6On8653w/Z2epafc3E7MWjO0KrhdvvXVSwylT9o3bWxy1sV7OfLbod1KBPE0QlADAg4OeKisbKPT4TDASI85246GuC8MXav4mgiUgjLgH1wpr0aoxOH9jNRvc0w9f20OZGHq3jHw9oep22m6jqsEV7cSLGsO7LLnoX7IPdsVk+Oozd3Gm2du0cl0dzCBZF3kEDBC5yc4P5Vvaj4b0TWL62vtQ0y3nu7aRZIpyuHBHQEj7w9jkVi+OL24sn0+e2l8qYlx5iqN2BjHOM9zSwvP7ZctjPH+z+rS5728vVB4G22trqVvPLCk0Mm+WMyrujUDBLDPAHvWppvjXw1feI30e21i2e+hdRs3jEmVz8jdG69jmqHgi5mvLO/muWEsjSBWdlGWBHIJxzWvYeGNCtPEMur2+lWyX9wwLz7ASMKB8vZeB2xU4rn9pLmKwHs/YQ5L28zqqy/Ed/caX4fvL20EZuIlBQSAlckgcgfWtSgjPWuM7zgNT8Wa1pzSWjNaF4rqWJrx0CRkLGkiqQzgAneR1/hOBmmv4p1XTbnUb26mjlt4ntnayEfzRJJEMFT1I80qM49elegFVIwQD35FG0E5wM+tAHAw+Ldafy4LtrOxMU4sry8eMmKKcK7MRkj5SBGBk/x9e1R3XiXW77RL2cBbcQ2ME4SJSskjvIy5ViflUhAQCP4uTXoRVSCCAQeoIowPQUAcnNq11f+FYJ3lEU1xfRW86xAo1sGmVWjOedwHyk8cnI4xXP3lx4nGh6xJDeyiz+13Ewut/72ARzMvkKOuGwpB7DcPSvR7m0gvLaS3uIlkik+8p7/AOcCpcDGMcUAeeXuq+IEtNYMQU2setJELk3TCWNPNiBVU24xyR97oTUT6trNlMiTXNzNaX2veVBKM5g23JVoWI/gZBkfRh3FekYHoKMDHSgDH8MTSS6S6ySNIIbq4hjkY5LIkrKvPfgAfhWzUNrawWVslvbxiOJBhVHapqAM27/4+W+gri/iB/yDLP8A67n/ANBrtLv/AI+W+gri/iB/yDLP/ruf/Qa7sH/FiebmX+7zPPz90/SvfrH/AJB9t/1yX+QrwE/dP0r36x/5B9t/1yX+QrrzXaPzPNyH4qny/UsUUUV4x9IFFFFABRRRQAUUUUAFFFFABRRRQAUUUUAFFFFABRRRQAUUUUAFFFFABXjnjr/kcLz6R/8AoAr2OvHPHX/I4Xn0j/8AQBXo5Z/Gfp+qPGzz/d16r8mY+l/8hey/6+I//QhXvdeCaX/yF7L/AK+I/wD0IV73WmafFExyH4J+qCiiivKPfOTOu3S+HdfvZpGZ7O9mij8vapCKwAGcEd+pBqK68a3NoLuWTTYvs8RvFiYXB3O1vnORt4BAPc4rePh3RjdzXR0y1M8+fNfyxl89c+uasnTbE9bSA8u3KDq/3z+OTn1oA5zVvGw0uS+zZrLFaSwxMVmAZjJGWU4x0Bxn0XLdBXVRFmiRnChyoLBTkZ9j3FUbbQNItFC2+mWkSjIwkSjqNp/Tj6cVeiiSGJIokCRooVVUYAA6AUAPooooA8h+IH/I2zf9co/5V3PgP/kULT/ef/0I1w3xA/5G2b/rlH/Ku58B/wDIoWn+8/8A6Ea9bE/7nD5fkfP4H/kY1fn+aOloooryT6AxPEupy6La2uo+asdnDcoL3cBjyWyuc9sMVP0Brk4fGerWkJGoAPcWyyX9xHHGAWtmQGJPY75ApP8A0zNehXVrBe20ltdQxzQSLteORQysPQg9aY1jaPNJM1rC0ksfkuxQEsnPyn1HJ496AOTPijV57+yghsoYZTLPHLHPIyJIFiV1YFk3DrjG0flzXT6RqKavo9nqMcbRpcwrKEbkrkZxUDeG9Ea0S1bSrMwIxZYzCuAT1P1PStJEWNFRFCoowqqMAD0FADqKKKAOK+Jf/ICtf+vkf+gmvL69Q+Jf/ICtf+vkf+gmvL6+gy7+B82fIZz/AL0/RHc/DH/kJ3//AFxX/wBCr0yvM/hj/wAhO/8A+uK/+hV6ZXmZh/HfyPcyj/dI/P8AMKKKK4j0wooooAKKKKAMTxj/AMiVrn/XhN/6Aatn/kXv+3X/ANkqp4x/5ErXP+vCb/0A1bP/ACL3/br/AOyU47omXws8JX7o+lLSL90fSlr60/PQooooAKKKKACiiigAooooAKtaZ/yFrL/run/oQqrVrTP+QtZf9d0/9CFTP4WaUvjj6o9kPU0lKeppK+bPuTn9V8IaXq1/JfXTXIlcAMI3wOBjpisSw8B2kksq3zXYQHEO18YXng8fSu7orZYmtFJKTsjB4ajJtuKuylpWl2+jWC2dqZDErFv3jZOTV2iispScnd7m0YqKstgooopDKWq6Zb6xp72V0XETkMdjYOQcjmuRv/AdpHLEtibsqTibc+crxwOPrXd0VrCvVguWEmkZToUpvmnFM57S/B2l6Vfx31q10ZUB2iSTI5GORiuhooqZ1J1HebuyoU4U1aCshskkcQQyyxxiRwiF2C7mPQDPU+wrjfiCrGPT8KT80nb2FT+JPh9p3iXxDY61PfX8Fzayq+yOdtjKOyjIMZ91I+lJ4yupNNOkyW7zbocqoNzLghcEbgGG/wD4FnNVhXNVlZGGPUHhpKTstOl+qD4fgjTb3II/fDt/s11+D6GuX8I3kuqXN7q1w0v2nf5e1Z5PKwVHSMttB46gVsw6TbQWFxZJLemK4ILs97MzjH91y2V/AijEuTqyuh4FQWHiou69C/hvejn3qhNpNtPY21m8t6IrckoUvZlc5/vMGy34k1M9nFJq0epF7nz0G0KLmQRdCOY9209fSsNex1adyz83vRhveqcOmwQNeMkl4TdgiTfeStjP9zLfJ1/hxUZ0e2OljTjLfeQJPM3fbpvMz/103bse2cUa9g07mhz70mT6n86o363FrbC90+Ke4vbWERQwmaRldSygllzhjjJyeavtgOwHTJoXYGJk+p/OjJ9T+dFFVYQZPqfzoyfU/nRRRYAyfU/nRk+p/OiiiwBXI/ED/kGWf/Xc/wDoNddXI/ED/kGWf/Xc/wDoNdGF/jROPMP92n6Hn5+6fpXv1j/yD7b/AK5L/IV4Cfun6V79Y/8AIPtv+uS/yFdOa7R+Z52Q/FU+X6liiiivGPpAooooAKKKKACiiigAooooAKKKKACiiigAooooAKKKKACiiigAooooAK8c8df8jhefSP8A9AFex14745BPi+8wCeI+3+yK9HLP4z9P8jxs8/3deq/JmDbTfZruGfbu8qRX25xnBziu5/4WfN/0Ck/7/H/CuC2t/db8qNrf3W/KvXq4enVac1c+eoYuvh01Sdr+h3v/AAs+b/oFJ/3+P+FH/Cz5v+gUn/f4/wCFcFtb+635UbW/ut+VZfUcP/L+LN/7Vxn8/wCC/wAjvf8AhZ83/QKT/v8AH/Cj/hZ83/QKT/v8f8K4La391vyo2t/db8qPqOH/AJfxYf2rjP5/wX+R3v8Aws+b/oFJ/wB/j/hR/wALPm/6BSf9/j/hXBbW/ut+VG1v7rflR9Rw/wDL+LD+1cZ/P+C/yO9/4WfN/wBApP8Av8f8KP8AhZ83/QKT/v8AH/CuC2t/db8qNrf3W/Kj6jh/5fxYf2rjP5/wX+Ro69q7a5qr3zQiEsirsDbunvW3ofjmTRNJisFsFmEZY7zLjOST0x71ye1v7rflRtb+635VrKhTlBQa0RhDF1qdR1Yv3nvsd7/ws+b/AKBSf9/j/hR/ws+b/oFJ/wB/j/hXBbW/ut+VG1v7rflWX1HD/wAv4s3/ALVxn8/4L/I73/hZ83/QKT/v8f8ACj/hZ83/AECk/wC/x/wrgtrf3W/Kja391vyo+o4f+X8WH9q4z+f8F/kd7/ws+b/oFJ/3+P8AhR/ws+b/AKBSf9/j/hXBbW/ut+VG1v7rflR9Rw/8v4sP7Vxn8/4L/I73/hZ83/QKT/v8f8KP+Fnzf9ApP+/x/wAK4La391vyo2t/db8qPqOH/l/Fh/auM/n/AAX+R0viPxg/iKxjtnslg2SeZuEm7PBGOnvXM0u1v7rflRtb+635V0U6cKceWCsjkrVqlaXPUd2dx8Mf+Qnf/wDXFf8A0KvTK80+GQI1O/yCP3K9R/tV6XXg5h/HfyPq8o/3SPz/ADCiiiuI9MKKKKACiiigDE8Y/wDIla5/14Tf+gGrZ/5F7/t1/wDZKqeMf+RK1z/rwm/9ANWz/wAi9/26/wDslOO6Jl8LPCV+6PpS0i/dH0pa+tPz0KKKKACiiigAooooAKKKKACrWmf8hay/67p/6EKq06OR4pUkjba6MGUjsRSkrpoqD5ZJnth6mkryn/hKNc/6CUv5L/hR/wAJRrf/AEEZfyX/AAryf7Pqd0fR/wBtUP5X+H+Z6tRXlP8AwlGt/wDQRl/Jf8KP+Eo1v/oIy/kv+FH9n1O6D+2qH8r/AA/zPVqK8p/4SjW/+gjL+S/4Uf8ACUa3/wBBGX8l/wAKP7Pqd0H9tUP5X+H+Z6tRXlP/AAlGt/8AQRl/Jf8ACj/hKNb/AOgjL+S/4Uf2fU7oP7aofyv8P8z1aivKf+Eo1v8A6CMv5L/hR/wlGt/9BGX8l/wo/s+p3Qf21Q/lf4f5nq1FeU/8JRrf/QRl/Jf8KP8AhKNb/wCgjL+S/wCFH9n1O6D+2qH8r/D/ADPVq4r4hf6vT/8Aek/kK57/AISjW/8AoIy/kv8AhVS+1W+1IILy5eYR527scZ69K1oYOdOoptrQ58XmlKtRlTind+nf1Oy+H/8AyDr3/rsP/Qa6+vH7LV9Q02N0s7p4Vc7mCgcn8atf8JRrf/QRl/Jf8KK2CnUqOSa1Hhc0pUaMack7r0/zPVqK8p/4SjW/+gjL+S/4Uf8ACUa3/wBBGX8l/wAKy/s+p3Rv/bVD+V/h/merUV5T/wAJRrf/AEEZfyX/AAo/4SjW/wDoIy/kv+FH9n1O6D+2qH8r/D/M9N1GK6m024jsrpbW4IXZMzbQvzDPPuMj8atPje2BgZNeaadrE2qNc2ut6hOdPMO6QqoJBDrtIwPXFVpvE+uC4lH9oyjDsMYHr9KzWCqOo43WljaWa0VSjUs7Nvt0t5+Z6nRXlP8AwlGt/wDQRl/Jf8KP+Eo1v/oIy/kv+Faf2fU7ox/tqh/K/wAP8z1aivKf+Eo1v/oIy/kv+FH/AAlGt/8AQRl/Jf8ACj+z6ndB/bVD+V/h/merUV5T/wAJRrf/AEEZfyX/AAo/4SjW/wDoIy/kv+FH9n1O6D+2qH8r/D/M9WrkfiB/yDLP/ruf/Qa5f/hKNb/6CMv5L/hVW91fUNSjWO8unmRDuUMBwfwrSjgpwqKTa0MMVmlKtRlTind+n+ZRP3T9K9+sf+Qfbf8AXJf5CvAT90/SvfrH/kH23/XJf5CpzXaPzKyH4qny/UsUUUV4x9IFFFFABRRRQAUUUUAFFFFABRRRQAUUUUAFFFFABRRRQAUUUUAFFFFABSFFJyVBP0paKAG7E/uL+VGxP7i/lTqKAG7E/uL+VGxP7i/lTqKAG7E/uL+VGxP7i/lTqKAG7E/uL+VGxP7i/lTqKAG7E/uL+VGxP7i/lTqKAOM+KX9rJ8PtUOiCJJ/KJllZ9hjiHLlf9rAwPrW94dTUT4esRrUUI1JYQtx5TblZhxuB9+v41T8d/wDIg69/14y/+gmt6H/Ux/7o/lQAuxP7i/lRsT+4v5U6igBuxP7i/lRsT+4v5U6igBuxP7i/lRsT+4v5U6igBuxP7i/lRsT+4v5U6igBuxP7i/lRsT+4v5U6igBAqr0AH0FLRRQAUUUUAFFFFABRRRQBieMf+RK1z/rwm/8AQDVs/wDIvf8Abr/7JVTxj/yJWuf9eE3/AKAa0baNZtJhibO14FU49CtNOzuKSumjwNfuj6Utes/8K60H+7c/9/jR/wAK70H+7c/9/jXvf2lR8z5P+xMT5ff/AMA8mor1n/hXeg/3bn/v8aP+Fd6D/duf+/xo/tKj5h/YmJ8vv/4B5NRXrP8AwrvQf7tz/wB/jR/wrvQf7tz/AN/jR/aVHzD+xMT5ff8A8A8mor1n/hXeg/3bn/v8aP8AhXeg/wB25/7/ABo/tKj5h/YmJ8vv/wCAeTUV6z/wrvQf7tz/AN/jR/wrvQf7tz/3+NH9pUfMP7ExPl9//APJqK9Z/wCFd6D/AHbn/v8AGj/hXeg/3bn/AL/Gj+0qPmH9iYny+/8A4B5NRXrP/Cu9B/u3P/f40f8ACu9B/u3P/f40f2lR8w/sTE+X3/8AAPJqK9Z/4V3oP925/wC/xo/4V3oP925/7/Gj+0qPmH9iYny+/wD4B5NRXrP/AArvQf7tz/3+NH/Cu9B/u3P/AH+NH9pUfMP7ExPl9/8AwDyaivWf+Fd6D/duf+/xo/4V3oP925/7/Gj+0qPmH9iYny+//gHk1Fes/wDCu9B/u3P/AH+NH/Cu9B/u3P8A3+NH9pUfMP7ExPl9/wDwDyaivWf+Fd6D/duf+/xo/wCFd6D/AHbn/v8AGj+0qPmH9iYny+//AIB5NRXrP/Cu9B/u3P8A3+NH/Cu9B/u3P/f40f2lR8w/sTE+X3/8A8mor1n/AIV3oP8Aduf+/wAaP+Fd6D/duf8Av8aP7So+Yf2JifL7/wDgHk1Fes/8K70H+7c/9/jR/wAK70H+7c/9/jR/aVHzD+xMT5ff/wAA8mor1n/hXeg/3bn/AL/Gj/hXeg/3bn/v8aP7So+Yf2JifL7/APgHnnh+ZLe9nllsheotuc25/j+ZR6Hp1/Cs2fi5m5z+8bn8a9Tl8Hpo9tNd+HvNXUwoWIyyBlwWG7rx0zT2+HmhMxYrc5Jyf3xrGOPpKrKetml+p0SynEOhGnpdNvfvb/I8lor1n/hXeg/3bn/v8aP+Fd6D/duf+/xrb+0qPmc/9iYny+//AIB5NRXrP/Cu9B/u3P8A3+NH/Cu9B/u3P/f40f2lR8w/sTE+X3/8A8mor1n/AIV3oP8Aduf+/wAaP+Fd6D/duf8Av8aP7So+Yf2JifL7/wDgHk1Fes/8K70H+7c/9/jR/wAK70H+7c/9/jR/aVHzD+xMT5ff/wAA8lP3T9K9+sf+Qfbf9cl/kK5v/hXWg/3bn/v8a6mKNYokjXO1FCjPoK4MdioV1FQ6Hq5XgauFcnUtrbYfRRRXnnsBRRRQAUUUUAFFFFABRRRQAUUUUAFFFFABRRRQAUUUUAFFFFABRRRQAUUUUAFFFFABRRRQAUUUUAFFFFABRRRQBz3jv/kQde/68Zf/AEE1vQ/6mP8A3R/KsHx3/wAiDr3/AF4y/wDoJreh/wBTH/uj+VAD6KKKACiiigAooooAKKKKACiiigAooooAKKKKACiiigAooooAxPGP/Ila5/14Tf8AoBrTsf8AkH23/XJf5Cszxj/yJWuf9eE3/oBrTsf+Qfbf9cl/kKALFFFFABRRRQAUUUUAFFFFABRRRQAUUUUAFFFFABRRRQAUUUUAFFFFABRRRQAUUUUAFFFFABRRRQAUUUUAFFFFAGT4lghuPD91FcXv2KJtm64/ufOD+vT8a1qyPFEllD4dupNRgee0GzfGhwT8645yO+K16ACiiigAooooAKKKKACiiigAooooAKKKKACiiigAooooAKKKKACiiigAooooAKKKKACiiigAooooAKKKKACiiigAooqG7u4bK2e4uHCRoMk/0ppNuyE2krsmorynXPG2rWN0NZjSY2ccgT7Ov3Np/ve59e1eheH9fsfEmkxajYSZjfhkP3o27qfeuithalGKlLb8jmw2Mp4hvl6fialFFFcx1BRRRQAUUUUAFFFFAHPeO/8AkQde/wCvGX/0E1vQ/wCpj/3R/KuO+K2o3WmfDnVprax+1q8RimAfaY0YbS/Q5wSOK6Dw5f3WqeHbC/vLL7FPcQrIbffvKA9ATgc4xQBqUUUUAFFFFABRRRQAUUUUAFFFFABRRRQAUUUUAFFFFABRRRQBieMf+RK1z/rwm/8AQDWnY/8AIPtv+uS/yFZnjH/kStc/68Jv/QDWnY/8g+2/65L/ACFAFiiiigAooooAKiubiO1haWU4UfmfYVLXP6/FcGQSj5o8AL6A981wZni54TDSqwjd/l5vyNqFNVJqLdjUgvi84guIjBKw3IpYHcP8farlcSi3tzcIDlpOikHkV2cQdYUEjbnCgMfU1yZPmU8Ypcydl1/TSyv6GuKoRpWs9x9FFFe0cgUUUUAFFFFABRRRQAUUUUAFFFFABRRRQAUUUUAFFFFABRRRQAUUUUAFFFFAGdrst5Do1xJYWy3N0NuyJlyG+YZ4+mT+FaNZuvwz3GiXEVreLZzNt2zs20J8wzz7jj8a0qACiiigAooooAKKKKACiiigAooooAKKKKACiiigAooooAKKKKACiiigAooooAKKKKACiiigAooooAKKKKACmycRuR6GnU2T/VP/ALpoQGSGbA+dv++jWLrtvdXDKxZmt1GcZzg+prZHQfSlrrpzdOXMjir0VWpuDdjzDxH4j03TLJbZ9k7kEGBCDkEfxHtWf8MLDXk1k6haxPbaNLnzhIxCyDnaE7kg969BuPBfh261RdRm0yFpwckDIRj6lehNbwAAAAAAGAB0FdM8VeLiluc+HwSpa3F3N/fb/vo0bm/vt/30aSiuM7hdzf32/wC+jRub++3/AH0aSua8W+KZPDEulEWf2mC6mdbkgndFEi7mcDvgZOPQUAdNub++3/fRo3N/fb/vo1wumeP31K6kzapbW39pwWkDyKxaWKSMurkZG0kAEex6VpDx1pv9kSaqbLVFsh5ZilNtxcK7hFMfPPJHBwcc4pXQ7M6jc399v++jRub++3/fRrnI/GenNqAtHt7+ImX7O0rwfIs+zf5JIJ+fHoMZ4zUFn4/0i/077ZbQXsm+dLaGFYlMk0jgkBQGwDgHIJGMc4ougszp5o0uIXhnXzIpFKuj8hgeoIp+WAwGbH+8a4S/+IjJPA2maRcXdp9huLyd2AR08olWTGeCGGGJzjtmrmu+MLrTfC2kavb2CpLqM0UXk3IdvKDqTnEeWbp27Gi6CzOv3N/fb/vo0bm/vt/30a5A+O7WwtoBqdvcNObZbqd7S3fyoo2kKBiHwwGcZBGadH45iEt4lzpGoRmHU/7NhEaq5nk27hgA8cD9Rz1wXQWZ1u5v77f99Gjc399v++jWDpfizTdW1ybSIVuEuo1Z/wB4oAYKwVsYJIwSOoGeorDh8Ya1qWo2dhplhp/2i4mvkzcyOFC27qo+6Dy278KLoLM7rc399v8Avo0bm/vt/wB9Gsnw5rS+IdBt9SEBgaQukkRbdsdGKMAe4ypwa1aYhdzf32/76NG5v77f99GkooAXc399v++jRub++3/fRpKKAF3N/fb/AL6NKjN5ifO33h/EfWm0q/6xP94fzoA16KKK5zcKKKKACiiigDE8Y/8AIla5/wBeE3/oBrTsf+Qfbf8AXJf5Cszxj/yJWuf9eE3/AKAa07H/AJB9t/1yX+QoAsUUUUAFFFFAGVLnzpOT9496hlwYnzyNp61NL/rpP941GQGUg8gjBrWceeDj3RinZ3M3SJfNDnvgcitP8T+dVrSxisw3l5JY9T6elWa4cpwk8JhI0Z7q/wCZvi6kalVyhsH4n86PxP50UV6Jzh+J/Oj8T+dFRzyrb28s7glYkZ2A64Azx+VAEn4n86PxP51xuneJ9bbSbbXtQtNNGk3VrJdLFBMRPEqoXUfNxISBzjGPpVi88eafZw3EjWd4/kQ2szbVXG2cErk5woG05J4FK6HY6r8T+dH4n8643/hYEKXkry6bOmlx6Wuom5DozYLFQu0E55GBjv7c1YfxzBG62zaPqI1E3P2VrHEfmK5iMqnO7bgqOuaLoLM6r8T+dH4n8642P4laSbCS8ms7+3hFol5CZEXM6PIIxtwxwd5A5x69Ks2Xjm01C5sLa206/ae8kmTZtUeV5W3exOcFcOCCuc0XQWZ1P4n86PxP51yOq+NBp3jqx0LFt9lfy47qR3xIkku7ygo7j5efTcKnbxrDFdX8E+l3sYsrmC1eTdGyM8rhVAKseeQxB5APrRdBY6f8T+dH4n865k+NrP7etnHY3kkhurm2YqFwnkbfMc5P3cNn146VJ4b8ZWHidpxZ291H5cSzKZUGJIznBGCeePunnkUXQrHRfifzo/E/nXJ6b8QNN1OJXjtLuMteQ2eyTZuVpSQpYA5XGDkHkVVuPiBsvYmttLubizEF5JOEC+aht5AjNywG3qfU8UXQ7Hbfifzo/E/nXKp4/wBIbVJbMx3KJHbG6+0OoCtGI/Myqk7iNp6gYzxTm8aLHp9vdy6HqkZup4YbeFlj3TeaCUKndjHHIJBGaLoVjqPxP50fifzrj08cCKSSB9Pu7y4N1dxpHbxopVYApYHc+DgN1746VWfx9JcLqMlrYvFZ262UkN24V/MWdlABTcCDgnHpg57Al0Ox3P4n86PxP51yr+PdORrhzZ3otkS5aC4KrsuDb581V5yCMHG4DOK0tC8RQ67JdxLZ3VpNbeWzR3AXJWRdyMNpI5HbqKLoVjY/E/nR+J/OiimBQ1tbF9Eu11J5UsyF8xo+WHzrjH44rRfO9s9cnvVHVphb6TcymxF8FC/6ORkP86jpg9Ov4Vdf77c55PNStx9BPxP50fifzooqhB+J/Or9j/qW/wB7/CqFX7H/AFLf739BUz2KhuWaKKKxNQooooAKKKKACiiigAooooAKKKKACiiigAooooAKKKKACiiigAooooAKKKKACiiigApsn+qf/dNOpsn+qf8A3TQgMgdB9KWoROMD5D09aXzx/cP5102Zzc6JaKi88f3D+dHnj+4fzosw50S0VF54/uH86PPH9w/nRZhzolqpdaba3l7ZXc6FprJnaE7uAXUq2R34NTeeP7h/Ojzx/cP50crDnRmyeGdKlv3vXgYzPdRXbfOceZGmxDjpjbxjpVSLwPoUVs9ssFx5LGPajXLsI1RxIqoCflUMM4Fbvnj+4fzo88f3D+dLlDnXcy38LaRJrDam0EpnaUzlPOYReaV2+Zszjft4zVaPwPoccUqrFdebJJHL9oN05mVowQhV85GASPxOc1u+eP7h/Ojzx/cP50coc67mVB4T0W3jSOO0OxLWW02mRjujlbdJuyckk8k9aLnwtpt1o9jpcjXYgsXWS3dblhKjKCFO/rwDitXzx/cP50eeP7h/OjlDnXcyJfCOlXEM0dyLqfzrUWkjzXDM7Rh94BY853d/TipP+EY0v+0WvhHMJWvFvivnNs85VKhwvQZB59eK0/PH9w/nR54/uH86OUOddzJ0rwnpGjaj9usopkmCyIoedmVFdt7BVJwMtzVebwRoszRMBewvE87q9vdvG2ZmDSDIOcEgcVveeP7h/Ojzx/cP50coc67ken2FrpdhBY2MCwWsC7Y416Af1+tWai88f3D+dHnj+4fzp2Yc6JaKi88f3D+dHnj+4fzosw50S0VF54/uH86PPH9w/nRZhzolpV/1if7w/nUPnj+4fzp0cwaVBtPLD+dFmHMjbooormOkKKKKACiiigDE8Y/8iVrn/XhN/wCgGtOx/wCQfbf9cl/kKzPGP/Ila5/14Tf+gGtOx/5B9t/1yX+QoAsUUUUAFFFFAGVL/rpP940ymzylbmUbc4Y96j88/wBwfnXSk7HM5q5NRUPnn+4Pzo88/wBwfnRysXPEmoqHzz/cH50eef7g/OjlYc8SaiofPP8AcH50eef7g/OjlYc8THtfBfh2zuHmh0xAWR4wjSOyIrjDhEJKoCCc7QKbb+CdAtIZYrezljEojDOLqXf+7zsw27IwCRwenFbXnn+4Pzo88/3B+dHKP2i7mUPCGgLHHGNNjEcdq1mE3ttaFjkqwz83JJyckE5p9p4V0ayaFoLQ+ZDObhZHld3MhQpuZmJLfKcc9BWl55/uD86PPP8AcH50coe0Xcyh4Q0EWqW39nqYUtBZqpdjiIPvC9eobkHr71NZ+HNKsLi3uLe3YT2/m7JXmd2/eY3kliSxO1eT6Vf88/3B+dHnn+4Pzo5Q9ou5mXPhPQryS7luNNhlmupVmlmbJk3rjaVbquNo4BA4qBPBWgpbXdt9mnaC7fzJo2u5Spfdv3gFvlbcAcjBra88/wBwfnR55/uD86OUPaLuZtj4W0bTZYpLWz2PE8zoWkZvmlAEhOSc52jrUml+HtL0Uy/YLYx+YojIaV3CoM4RQxO1eTwMCr3nn+4Pzo88/wBwfnRyh7RdzGHgrw+LeaH7CxEzRsztcSFwYySm1y25QpJwAR1pj+BPDcltFbnT2EUQlVQtxIvEjbnBIbJDHqDW555/uD86PPP9wfnRyB7RdzNPhbRGvxetYq0qqVVWdjGoKbDhCdoJX5cgdKjtPB+hWSxrBYkeXPHcIWmdiHjBCckk4UE4XoM9K1vPP9wfnR55/uD86OUPaLuc/f8AgbSNQv4Lh1lSJHuZZYY5HXzXmChmLBgR93oODmrkvhPQ5WcmxCh4ooWVJGVSkTBoxtBx8pAwevatTzz/AHB+dHnn+4Pzo5Q9ou5lHwhoJnu5jp433SSJIPMfaBJ/rNq5whbuVAzV+00uzsbie4todks6RpI24ncI12oOfQVN55/uD86PPP8AcH50coe0XcmoqHzz/cH50eef7g/OjlYueI2+XUHsJ10p1S9IHlM2MD5hnrx0zVlsb2x0ycVmassF3o91Dd3P2O3ZV3zjnZh1I/M4H41eknbzGzHg5PGalJ8xTkrIkoqHzz/cH50eef7g/Oq5WTzxJqv2P+pb/e/oKyvPP9wfnWnpzb7cnGPmP9KiaaRdOSb0LdFFFYm4UUUUAFFFFABRRRQAUUUUAFFFFABRRRQAUUUUAFFFFABRRRQAUUUUAFFFFABRRRQAU2X/AFT/AO6adTZf9U/+6aEBzw6D6UUDoPpWppqK1uxZQTu7iuucuVXOGEOZ2MvI9aMj1p2t+IodH1KCxWw8+aWIygGRI9wBA2oWIDvz90U6XxPo9p5ovZI4SssiBVRpCRGFLEgLxgMM+nrWXtvI1+r+ZHketGR607UvFWj6eswXNxLHG8myGMkHbH5hG/G0Hbg4z3FXIta0mTUEsBKgumwNhQ43Fd23djG7bzjOcc0e28g+r+ZRyPWjI9aQeJoX1+40uPT8+Q/lyOZEDD5N2/yz83l843Dv2qSPxTo5W1V3UyzojbYo2dU3J5nLYwPlBbnBxzij23kH1fzGZHrRketaGl6xpWsiQ2EyS+WFZsxlflYZUjIGQcHBHHBqF/EehRy3Mb3USm2V3kJjO3CffwcYYr3AyRR7byD6v5lXI9aK09O1LTtWSVrJ1k8ptjgxlSpwCOCAeQQQe+abqaqqxbVA5PQVUal3awpUeVXuZ1FFB6VoYBketGR61vrHHtHyL09Kq6pe2ukaZPf3EZMUK5KomWYk4AA9SSB+NY+28jo+r+ZlZHrRketTR62LdJm1jS5NOSNVZXYrKj7jtCgrn584G3HcYzSS+KvD0EMUsl2gWRXcfumJARgrlhjK7SQDnGO9HtvIPq/mRZHrRketPvfFGlWmoR2Me2adpGibapCIViaQ5bGOi8gZIyOKjtvFWnXc/kRxASrJbxuXVlQmVQy7G24br7Zo9t5B9X8xcj1oyPWp18UeH2gmnF5F5cW0sxjYZDNsVl4+YFuMjIzQ/ibQY7WK5e5VYpC4BMLZXYcPuGMqAeCWxij23kH1fzIMj1oyPWtPTb6DUhdFINn2e5e3O4D5ivce1XvKj/uL+VHtvIPq/mc9T4f9fH/vj+dPugBdygDA3UyH/Xx/74/nWt7q5ja0rHQUUUVyHeFFFFABRRRQBieMf+RK1z/rwm/9ANadj/yD7b/rkv8AIVmeMf8AkStc/wCvCb/0A1p2P/IPtv8Arkv8hQBYooooAKKKKAMG5/4+pf8AfNRVLc/8fUv++airsWxwS3YUUUUEhRRRQAUUUUAFFFFABRRRQAUUUUAFFFFADlRnbailj6Cn/Zp/+eL/AJVNp3/H2P8AdNbFZTqOLsb06Skrswfs0/8Azxf8qPs0/wDzxf8AKt6ip9qy/YR7mD9mn/54v+VH2af/AJ4v+Vb1ZNj4l0nUrewns7sSx30jxwEKfmZQxYHjggKeuOlHtWHsI9yv9mn/AOeL/lR9mn/54v8AlWjPrGm2yRPNf26JLL5EbGQYaT+7n14qx9ogxnzo8bQ33h0PQ/Sj2rD2Ee5jfZp/+eL/AJUfZp/+eL/lWwLu2IkIuIsRNtk+cfIfQ+hqqNasXguZYpfMFu7RuqjksoBIUd+COlHtWHsI9yj9mn/54v8AlR9mn/54v+VbK3Vu0xhWeMygZKBxuA+lNtr21vDILW5im8sgP5bhtpPrij2rD2Ee5wnjzwzrHiTwpLYaVcXFreLIske1yiycjcre2OR7qK3bPTrizsbe1Zrm4MMaxmaYlnkIHLEnuTzXS0VPPrcp0k48tzB+zT/88X/KmtDKi7mjYD1IroKrah/x5P8Ah/OrVVt2IdFJXMWtbTP+PU/75rJrW0z/AI9T/vmqq/CRQ+Iu0UUVznWFFFFABRRRQAUUUyWWOCMySMFUdSaAH0VV/tC39ZP+/Tf4e1H2+39ZP+/Tf4UAWqKq/wBoW+Osn/fpv8KP7Qt/WT/v03+HtQBaoqr9vt89ZP8Av03+FH9oW+Osn/fpv8KALVFVf7Qt/WT/AL9N/h7Uv2+39ZP+/Tf4UAWaKq/2hb46yf8Afpv8KP7Qt/WT/v03+HtQBaoqr9vt89ZP+/Tf4Uf2hb+sn/fpv8KALVFVf7Qt/WT/AL9N/h7Ufb7f1k/79N/hQBaoqr/aFv6yf9+m/wAKfFeQTSeWr/P12spUn6Z60AT0UUUAFNl/1T/7pp1Nl/1T/wC6aEBzw6D6Vq6X/wAe7f71ZQ6D6Vq6X/x7t/vV0VfhOSh8RR1/w6ddVo2v5oYJYjDND5aSIynuAwO1uT8w/oKgTwfaxtIVup8OlwmDg4Eqop574EY/M10dFc51nBL4Jvv7WuFeWI2EyNCzlssIjAIvlXHyycDLZxjt2rYs/B1vaawmpfaTJJvEzgwplpPLCFt2MgEDOB39uK19buZrLQdQurcZmhtpJIx/tBSR+tcLJfPp+tWq/wBqXF0FNpGkCXLpMAyqCVjIKzo2SzN1HPPFAHT3vhVb/VEurjUZ3hjn+0RwsikxvjGFfG4L32/04rDj8E39trCeTNE1kI44fMkbJEaw+UTsx/rDzhs4wfwrHh1i/gtrqO21O5vJ3t98t1BM0hRBKgd3hcZhkCM2FHHB44FX7vUBAdROh6pcXlhb2cdx5huGmVLkSjaockk7xnK59OBmgDqYPCuno+bhftSC3t4AkyggeTu2t9fnNVLjwTb3Mc0D31x9lIuPIhCr+5abO85xlvvNgHpnvxXUUUAUbPTI7O+vbtZHZrsoWB6LtQKMflTdV+7F9TWhWfqv3YvqauHxIzq/AzMoPSig9K6TiOiX7g+lVdU06DV9NnsLneIplwShwynOQQexBAI+lWl+4PpS1xnonPS+Gbi6Qte61d3FwrRvBJsRViZG3BtgGCSepPbgYqMeDbfybpXvJ2lu7e4hnkwoLGZgzNjGBjaAB0xXS155N451KPUL+OGOCeNI7ho18sgwmKRVywDFiMMWOQucccUAbr+Do2uiw1G4W28+S5FuFXAkeNo2OcZx8xOPX2pY/B0ETx4vJjEjWzmMqOWhUKDn3AGRWXceKLyJIY11nSzETOTqRgbymKBCseN2Nx3HlSeF45zhF8Xaq2vXNt5VpHFH5iiKTIbCw71kwDvKk8fd6d88UAaUPguGOOJJL+4lW3SGG2yqjyoo5FkC8DkkooJPYVHqfgS31KO4ja/uEjnadnTarAeaQSQCMBhjAPpmsRvG2rLon2jz7Lzo52WR9gKsBGHwh37H5P8AeDY4xnivQrab7RaQzYI8xFfBBHUZ6HkfjQBU0vS10trzy5nkS5uGuNrAfIWAyAe4yM/jWhRRQBhXf/H3L/vUyH/Xx/74/nT7v/j7l/3qZD/r4/8AfH86618Jwy+P5nQUUUVyHcFFFFABRRRQBieMf+RK1z/rwm/9ANadj/yD7b/rkv8AIVmeMf8AkStc/wCvCb/0A1p2P/IPtv8Arkv8hQBYooooAKKKKAMG5/4+pf8AfNRVLc/8fUv++airsWxwS3YUUUUEhRRRQAUUUUAFFFFABRRRQAUUUUAFFFFAFvTv+Psf7prYrDtJfJuA23PBGM1ofb/+mX/j1YVE3I66LSiXKKp/b/8Apl/49R9v/wCmX/j1Rys05kWyMqR6iuEj8AXMX9liHUEgWK3eO8VAfmlMDRLKno2G59Qo7iuw+3/9Mv8Ax6j7f/0y/wDHqOVhzI5Cy8D3VrbQllsnmhubeUIzsyOIlZT/AA/KSG7A9ACT2LbwFdQ38MrXkJt0n2OgU5NojB4Y/wDeVwMnpgmuv+3/APTL/wAeo+3/APTL/wAeo5WHMjj4vAlybaO3naxCRRQQHYpP2oJOkheUEfeIUjHPLNzzT7nwRePca1JFcWzLqSyoqyA/6OGC42ccZ2/MO+F54xXW/b/+mX/j1H2//pl/49RysOZHI6r4OuBa31zbRwSXUkt7KRGNskizRlVTdxyCR3xxWn4Ktrq1srxbqzaFnnD+YyiPzTsUEiMAbMbQOnOM1t/b/wDpl/49R9v/AOmX/j1HKw5kXKKp/b/+mX/j1H2//pl/49RysOZFyq2of8eT/h/Omfb/APpl/wCPVBdXfm27JsxnHOfemou6FKS5WZ9a2mf8ep/3zWTVtdUsNH0iS81G8htbZGJaSZwoH51rV+E56HxGxRVTT9Ss9VsIL2ynWW3njEsbjjKnocHkVY82MqW8xdo754rnOsfRTTLGACXUBunPWjem/ZuXd6Z5oAdRTRLGQSHUgdTnpSebGFDGRdp6HPFAD6pXgzd2wPIAdh9cAZ/U1Hq+u6ZoFmLzVLyO1ty6p5kh4BY4GfQe9ElxDdS2k9vNHLE6OUeNgysOOQR1prcCSiiqF9qaWdzFAVBeXG0s2OrbeB3xnJHpW0YuTshlkXkJuTbhz5gOOhxnGSM9M4IOKmqgNPhW/adRi52A+ae56Hjp0AH0pdN1NNSEmxNpTGcNuHOeD6Hjp9Kdrq8em4xL3XNK025jtr3ULe3nkGUjkfDMPYVYivradLV4pg6XS7oGUEiQYzkfhVTUtLN/fafcCVUFo0rFSud2+Mp+GM5rlk8A3EVj9ih1ny18jZtUMOfKEZbG7jJGai7EdtJcwxXMNtJKFnmDGND1YLjdj6ZFTYPoa5S38Gvb6+b+PUGSECVYwgbzkV1QBQzEjC7Djj+I1RTwfqlxc6lNJfrbiaeUIrAyGWNpFYb/AJsdFOMAEbjSuwO3dxGAXYKCQoLHGSeg+tOwfeuKTwExtNtzfrdXSy2siSTK7LiEKCpG7+LaeRzz3qzpnhq5Okavb3cs0L3bslqGk3NbxKSYxkHGQxJ69MCndgdQsyNcPbq2ZUUOy4PAOcH9DTkdZEDxsHU9GU5FclF4KmNxayXWptOiNHJcJ8yiZwZS54bgEyDj0UCq9p4HurNLdLPVoY4I3ViEib5gszSA/exn5sHscCldgdi91Cl3HaPKouJEaRIz1ZVIBP4ZH51LXK+H/Clzo+ox3lxqaXOxJVChCAPMEecZJwMxk4/2q6rIxnIxTQBmo5hkxN3WVCD6c4P6VJUc3SP/AK6p/wChCh7AaNFFFZCCmy/6p/8AdNOpsv8Aqn/3TQgOeHQfSrdre/Zoynl7snOc4qoOg+lFdbSejOCMnF3Ro/2r/wBMf/Hv/rUf2r/0x/8AHv8A61Z1FT7OJftp9zQOqBlKtACCMEFuv6VHb3cNpbxQQWoSKJQka7s7VHQCqdFHs4h7afc0BqYBJEABPX5uv6VFPc29zEsU1orxq6yBS3G5TkH8wDVSij2cQ9tPuaP9q/8ATH/x7/61H9q/9Mf/AB7/AOtWdRR7OIe2n3NH+1f+mP8A49/9aq91d/aQo2bdvvmq1FNQindCdWTVmFFFFUZmiNUwAPJ6f7X/ANaj+1f+mP8A49/9as6io9nE19tPuaP9q/8ATH/x7/61J/aYBJ8gZP8Atf8A1qz6KPZxD20+5of2muAPs4wOgz/9al/tQZz5Az0zu/8ArVnUUeziHtp9zQ/tJcY+zrjrjP8A9al/tX/pj/49/wDWrOoo9nEPbT7mj/av/TH/AMe/+tR/av8A0x/8e/8ArVnUUeziHtp9x8snmzPJjG45xRD/AK+P/fH86ZT4f9fH/vj+dXsiE7yudBRRRXGd4UUUUAFFFFAGJ4x/5ErXP+vCb/0A1p2P/IPtv+uS/wAhWZ4x/wCRK1z/AK8Jv/QDWnY/8g+2/wCuS/yFAFiiiigAooooAwbn/j6l/wB81GqlmCqCSewqS5/4+pf980+x/wCPyP6n+Vdd7RucNrzsM+zz/wDPF/8Avmj7PP8A88X/AO+a3qKx9qzf2Ee5g/Z5/wDni/8A3zR9nn/54v8A981vUUe1Yewj3MH7PP8A88X/AO+aPs8//PF/++a3qKPasPYR7mD9nn/54v8A980fZ5/+eL/981vUUe1Yewj3MH7PP/zxf/vmj7PP/wA8X/75reoo9qw9hHuYP2ef/ni//fNH2ef/AJ4v/wB81vUUe1Yewj3OdZWRtrAgjsaSrN//AMfr/QfyqtW0XdXOeSs2h8P+s/CrFV4f9Z+FWD0qZbmtPYl+zzf88z+lH2eb/nmf0rTHSisedm/IjM+zzf8APM/pR9nm/wCeZ/SrCanZSanPpqXKG8gjWWWLuqtnB/SrKyIwyrqR6g0c7DkRnfZ5v+eZ/Sj7PN/zzP6VpF1HVh0z1qrqGqWWlW6XF9cxwQvIkSu5wCzHCjPuaOdhyIr/AGeb/nmf0o+zzf8APM/pVuO+tZri5gSZTLbFVmXpsLAMM/UEU5bq3e6ktVmjM8aqzxhhuUHOCR74P5Uc7DkRS+zzf88z+lH2eb/nmf0rS3KBksMdetRXV3b2VpLdXEqxwRIZHc9AoGSfyo52HIil9nm/55n9KPs83/PM/pWkrK4ypBHWlo52HIjJeN48b1Iz0zUUv+rP4Vev+sf4/wBKoy/6s/hWkXdGc1a5XpuoeFdF8WaKbLWrFLmJXYoTkNGSByrDkGnVraZ/x6n/AHzTq/CZ0PiM/Q/B+h+H7OOCxsIAywC3edo18yVMYw7Ac5qwnhnQo9Nk05NIslspHDvbiFdjMO5GMZ4FatFc51mZN4c0W4itIptKs5I7MYtlaFSIen3fToOnpUo0bTBqx1UWFv8A2gRt+0+WPMxjGN3XpxV6igDLh8N6Jb293BDpVnHDd/8AHwiwqBL1+8O/U0knhnQpdOi0+TSLJrKFi8cBhUojHOSBjAPJ/OtWigDm/E3gTw/4ttUg1OxQ7CgEsYCybVOQgbGQv0q1Z6Pp+gw2en6XaR2lpGr7YoxgZ459z7mtqqt5DIzRzRLvaPOUyBuB64PrwKa3AZSFQwwwBHoabul/59Zv/Hf8aN0v/PrN/wCO/wCNaXQzPVLs6o0Lxv8AZMY3HGCuMgZzknJIxjoK0wABgAD6UzdL/wA+s3/jv+NG6XP/AB6zf+O/403JMDm9c/t+bxJa2+lSyx24t1kdsgRBhKM7sg7vkyNoIPOazxpHjCGMXUd8kt+LdQfNZMM/mNlMhfuhSCPcV2m6bH/HrN/47/jRul/59Zv/AB3/ABqdO4HF3WkeLp7l0a+ka0jkhZNlyqtLsddxzjjcu4kHjNXrOz8WLo2sJd36vqEufsTLtCxnnBB7DGOCOMV026XP/HrN/wCO/wCNVJNWt4tUg0yRXW9njaWOElcsq4yevv8AofSjTuBzbaZ4we+jiOqlbANMpcFDIVLHaWOB/CQBjkEVXh0nxrBb2UEGobY0giWbzZldt+Cj4OOQB849+K7fdL/z6zf+O/40bpc/8es3/jv+NGncDkodO8YPdos+pNHb/aFMzpIhYoC+Sg2/Ku3yxtOTkE/WLTNF8QWPg/VtNuGDTmBls1hkGFBByg7hsk855yOmK7LdL/z6zf8Ajv8AjRul/wCfWb/x3/GjTuBw+p+E7+9m1BbNEj0+a2ee1hZ9rLdPEIsEdgACfqTVW+8BalDHcNpd0vnNZSRqGby42eRvnjCDhV28g9mGa9C3S5/49Zv/AB3/ABo3Tf8APrN/47/jSsgMrw9a3Fql+Jo2jie6LQo3psUMR7FwxH1z3rUm6R/9dU/9CFLum/59Zv8Ax3/GgRzzSxqYmjjVgzMxGTjoBg+uKd1YDQooorMQUhAIIPQ0tFAFb7Ba/wDPL9TR9gtv+eX6mrNFVzS7k8kexW+wW3/PL9TR9gtv+eX6mrNFHNLuHJHsVvsFt/zy/U0fYLb/AJ5fqas0Uc0u4ckexW+wW3/PL9TR9gtv+eX6mrNFHNLuHJHsVvsFt/zy/U0fYLb/AJ5fqas0Uc0u4ckexW+wW3/PL9TR9gtv+eX6mrNFHNLuHJHscX8RtQn8N+Cb+/0qxlnvgu2IxqXEXq7ewGTz7VseHmXV/D9jf3Wny2dzNEGlt5QytG/QjB9849qi8d/8iFr3/XjL/wCgmt6L/Up/uijml3Dkj2IfsFt/zy/U0fYLb/nl+pqzRRzS7hyR7Fb7Bbf88v1NH2C2/wCeX6mrNFHNLuHJHsVvsFt/zy/U0fYLb/nl+pqzRRzS7hyR7Fb7Bbf88v1NH2C2/wCeX6mrNFHNLuHJHsVvsFt/zy/U0fYLb/nl+pqzRRzS7hyR7Fb7Bbf88v1NKtjbKwYR8g5HJqxRS5n3Dlj2CiiikUFFFFABRRRQBieMf+RK1z/rwm/9ANadj/yD7b/rkv8AIVmeMf8AkStc/wCvCb/0A1p2P/IPtv8Arkv8hQBYooooAKKKKAMG5/4+pf8AfNPsf+PyP6n+VMuf+PqX/fNPsf8Aj8j+p/lXU/gOJfxPmbdFFFcp2lbUL6HTNNub+43eTbxNLJtGTtUZOBVCy8SWV1JNFOk9hNFEJ2jvEEf7vpvByQRng88d6s63p7atoV/pyyCNrqB4Q5GQpYEZx+Nc/e+Eb7WI5JNTv4FuVgSG3FtGyogWRJCWy247jGo4IwBxzzQB0iarp8kJmS+tmiEfmlxKpATJG7OemQRn2qnqHiG10+7a1EF3dTpGJpUtYTIYkOcM31wcAZJweKxV8EMTaO9zEjC4eS8RFZhPGzq+zLMT99FOSectxzWneaPqSavc6jpF7bwPdwpFOtxCZACm7a64I5wx4PBwOlAGjFq+nTSRRJewGWWITJGXAdkIzu2nnGKrT+KNCt7b7S+rWhh81IS6ShgHc/KDjpmsc+DJjrRvXvlmV5EndpQ+/wA1YvLyArBOcZ+7xkj6IPBksNpAlvdQLLBa2UKZh+Vnt5C+SAejZx7UAdGdV04SzxG+thJbrumUyrmMerc8D61ZhmiuIUmgkSSJxlXQ5DD1BripPAUkgv4jdxGOdLgRM6yMymZgzAgttwOnAGePSu3VQqhVAAAwAB0oAWiiigDFv/8Aj9f6D+VVqs3/APx+v9B/Kq1dcPhRw1PiY+H/AFn4VYPSq8P+s/CrB6VMtzSnsbA6UUDpXL2Oq6vqCnU0nsIrAXj2/wBmlUh9iyGMsZM8OSCQu3HQdea5jqKcfhjWbfUTrIuobi8llnM1nJgRGN1wq7tu442RdeODVS08LatZ2NsbaxsYrrbcpcr5+1HaZV/eDamAAVwFx0xzWn/wnMQtFuG0y5CzxJPaLvXM8bSLGD1+U5dTg9j9aWbxqYojjSbh54xcmeISp+7EBXfyTzkOCMfpQBlnwPe/2dIM25uc2fQ/61IYkVoyWUgAspPIIOBkVqHwvLN4Y03SZ0idYbtZZ4pH3r5e9iUBwM8HGMAemKcfHVh9umiFvcG2h3B7hVztKxeacr2G3jPrx706TxNqQOmbdEeMXl1HF++nX/VujNuGM8jbyP50AYb+CNXUXIa6ivIlvUkiSRgGmhWHy1EhZWBZSRyQc7c8Gpm8GX8CSS2qWhvlsrUQXMjksk8DEgMduWVgQM+g6Vfg8aItp5ptZ7iOBBLdzfKnlI0jop25+b7hPHYevFX9N8TjUNTS0NhNDHKbhYZmdSHML7H4ByPUZoA56LwNfW0bxiSC5t7eSJra3lcgSpu8yZHOD96TkcEfKM09fBN41tdeYtp5j6fcwW6biVtnlkZgqkj7oVtufrgYqTV/Gtxp+ji8R7YS3F7OkCTAgeTCSGHHVm2YHu49KNR8b3Fld6lIqQNpgsUls7nniZo2dQ/+y2AAfXjuKAOg8N6Xc6RYzWt0ySv5zP8AaQfnnz/E/o3bjjgYwOBs1yNvrOtamt7c2k2n28NgURorhD++YxpIxL5/dr8+BwemT6Vt6Rfy3c+pW8+0yWd0YgyjG5Cquv4gOB+FAE1/1j/H+lUZf9Wfwq9f9Y/x/pVGX/Vn8K2hsY1OpXrW0z/j1P8AvmsmtbTP+PU/75qqvwmVD4i7RRRXOdYUUUUAFFFFABRRTJZo4IzJK4VB1JoAfRVT+0rb+8//AH7b/D2o/tK2/vP/AN+2/wAKALdFVP7Stf7z/wDftv8ACj+0rb+8/wD37b/D2oAt0VU/tG2/vP8A9+2/wo/tK1/vP/37b/CgC3WHdeHdIufFFtq01i76hHGSlwHbC7cADr15OPxrR/tK2/vP/wB+2/w9q5y8l1p/GtlPbamyaF5TGeH7PyHGMLnGfm4Oe2D60AddRVT+0rXH3n/79t/hR/aVt/ef/v23+HtQBboqp/aNt/ef/v23+FH9pWuPvP8A9+2/woAt0VU/tK2/vP8A9+2/w9qP7Rtv7z/9+2/woAt0VU/tK2/vP/37b/CpIr23nk8tJPnxnawKk/TPWgCeiiigAooooAKKKKACiiigAooooAKKKKACiiigAooooA57x3/yIOvf9eMv/oJreh/1Mf8Auj+VYPjv/kQde/68Zf8A0E1vQ/6mP/dH8qAH0UUUAFFFFABRRRQAUUUUAFFFFABRRRQAUUUUAFFFFABRRRQBieMf+RK1z/rwm/8AQDWnY/8AIPtv+uS/yFZnjH/kStc/68Jv/QDWnY/8g+2/65L/ACFAFiiiigAooooAwbn/AI+pf980+x/4/I/qf5Uy5/4+pf8AfNNikaKQSLjI6ZrqteNjhvad/M6Cisj+0p/RPyo/tKf0T8qx9nI6fbQNeisj+0p/RPyo/tKf0T8qPZyD20DXorI/tKf0T8qP7Sn9E/Kj2cg9tA16KyP7Sn9E/Kj+0p/RPyo9nIPbQNeisj+0p/RPyo/tKf0T8qPZyD20DXorI/tKf0T8qP7Sn9E/Kj2cg9tAZf8A/H6/0H8qrU+WVppDI2Mn0plbxVlY5Zu8m0Ph/wBZ+FWD0qvD/rPwqx2qZbmtPY2B0rKPhvSDqP282S/aPM84/M2wyf39mdu7/axmn/aLj+83/fP/ANal+0XH95v++f8A61YcrOjmRDF4X0WESBLFAJCpILMQAr7wF5+UBgDgYGambQdMZ5XNohaUShzk/MJceZ377V/Kj7Rcf3m/75/+tR9ouP7zf98//Wo5WHMhi+HdJW7+0izXzNu3BYlT8uzJXOCdvy5xnHFMi8L6PBCIo7PaFlSVT5jllZPu4bOQACQAOMEjvU32i4/vN/3z/wDWo+0XH95v++f/AK1HKw5kQt4Y0Z3hY2KfufugMwB+YuAwzhgGJIBzgmrUGk2FtLDLDbKjwmUxkE/KZG3P+Z5qP7Rcf3m/75/+tR9ouP7zf98//Wo5WHMhtjodpYXctyilpGaQoW/5ZrIwd1HsWGaZ/wAIzov9n3OnnT4jaXMSwzRNkq6LnA5PbPFS/aLj+83/AHz/APWo+0XH95v++f8A61HKw5kQ3PhfRru4E09ijOFVWG5gsgX7odQcPjtuBq3Yaelh9pZXZ5Lmdp5HbuTgAfQAKPwqL7Rcf3m/75/+tR9ouP7zf98//Wo5WHMiS/6x/j/SqMv+rP4VNJJJIR5hJx0yMVFICyYAySRitYqyMpu9ytWtpn/Hqf8AfNcFJ8Q/C8PiQ6E+of6Uiv5smwiKJl/hLHqfoD9a3rPxv4Yt4Cj61a53E8bv8KKkk1oTShJSu0dZRXOf8J94V/6DVt+v+FH/AAn3hX/oNW36/wCFYHSdHRXOf8J94V/6DVt+v+FH/CfeFf8AoNW36/4UAdHRXOf8J94V/wCg1bfr/hR/wn3hX/oNW36/4UAdHWfqAzc2wPQb2A98AZ/U1zWt/FXwpolit21+LlPNVGW3UllB/iwcZArXttZ0/X7Wx1LS7lbi0mVykgBGemeDg/pQBZo60Uo6igDIbxBbruxbXjKMncIsggHBPXpmr1nepexu6JLGUcoyyLtYH6fjXHmc/Zm/eamP3UvEceU/1nY4+76+9dHoLb1vstcN/pRGbgYk+6vUetd1ehCELo46NeU52Zq0VxFr46m3JNcwW0sE8byLBatma3KyrGFl3HGSW9sEEc1rt4utF0yO8+y3O55hD5RUDa5kMeC5+Thh69Oa4TsOgorkj4/sfsr3K6fetEgiGRt5eQkKnX/ZPPTj3FOfx7Zo7A6be7FyWY7BgKIy2QTngSL+tAHV0VyB8e2drDm7hnZtjurqgUPiUxhVGTzwM/nWlpnim21O+NotrcQSfZvtIE4CkjuAM5OPWgDdorkV+IVgY4SdPvvMmKbIlVWYqybw3B9O3Wg+Pba2jL39jND/AKRNCux1cERuFYn0wDuI9AaAOuorkpPiBp8cbyNZXYCoTjKbiwVX24zkfK45PHarmheJH1TV9S02e3MVxaSMSCR8qcAA8nc2c5I4HHrQB0NNcfPC3dZVwfTnB/SnU1/vRf8AXVP/AEIUAa9FFFABRRRQAUUViWsQnsZLye9u1AeUttlIACsw6fQVcY3V2TKVjbornorizZttxe31oSu5PPuMb19Rz+lWtIvYJLm7tkvftAWQGPdIGYrtGceozmqlSaTfYyjXhJpX3NeiiisjcKKKKACiiigAooooA57x3/yIOvf9eMv/AKCa3of9TH/uj+Vcf8VNVfSPh1q0y2UlykkJgk8tgDEHG3efUAkZ+tdB4d1OTWfD1jqMlnJZm5iEgglYFlU9M49Rg/jQBp0UUUAFFFFABRRRQAUUUUAFFFFABRRRQAUUUUAFFFFABRRRQBieMf8AkStc/wCvCb/0A1p2P/IPtv8Arkv8hWZ4x/5ErXP+vCb/ANANadj/AMg+2/65L/IUAWKKKKACiiigDBuf+PqX/fNRVLc/8fUv++aLaNZbhI2zg9cfSuu9o3OBq8rEVFa/9m2/+3+dH9m2/wDt/nUe1iaewkZFFa/9m2/+3+dH9m2/+3+dHtYh7CRkUVr/ANm2/wDt/nR/Ztv/ALf50e1iHsJGRRWv/Ztv/t/nR/Ztv/t/nR7WIewkZFFa/wDZtv8A7f50f2bb/wC3+dHtYh7CRkUVr/2bb/7f50f2bb/7f50e1iHsJGRRU11EsNw0a52jHWoa0TurmTVnYfD/AKz8KsHpVeH/AFn4VYPSolubU9jYHSigdKpavYnU9Iu7JZWiaaJkWRCQUbHDAj0ODXMdRdorzyzu9W1GW21m4tZo5GuorMQyRH935cchkcA9MyEgN3Cj1qN73xJbw2t+99ey3U2hvMsItlCGfKsV2hfvAE8ZycfhQB6PRXBX/ibU53uzYy3Edq14kdvOLQgbPIDHllJ5fIB2nPTiptIvNQvLHWp7yOaO7uNNgnWPYygMYCG2jt8wPHXNAHb0V5hby+JNKGm20cN3eSWukzz2k0gZhISkeI5PV1bIGeSMd81bgvddvpNMkk1S4ihF88XnxQcMGgO0SZjAID8cDHOCcigD0SivPbTxD4ruZYl+xuDcKfLVrfARoFPnAnsJHwFPpyKfbaz4guUhigvJ5FlltFkuXsgphdy3mxhSMEKAvJzjPJNAHf0Vx/hO61P+1Ly0vxNFbiW4a1DISJx5zZYsehHAC+hzznjsKAKV/wBY/wAf6VRl/wBWfwq9f9Y/x/pVGX/Vn8K2hsY1OpQNlaNqMeotawm+jRo0udn7xVIwRu64+tb2mktbEsSTuPWsitbTP+PU/wC+aqolymVFtyLtFFFc51hRRRQAUUUUAUtT0jT9ZtkttStIrqBJFlEcq7l3DoSO9R3iLHNaoihUVWAVRgAcVo1TvoJJPLliUM8ecpnG4Hrg+vAoArUo+8KTbP8A8+sv5r/jSbZ/+fWb81/xoA84trLW3OrJcJqUSRxSCzRAdrkvnb06HrXTeDU1FdJnfVI5kupLhmJmGGYYAz+lb8ryQxPLJbyJGilmYlQAACSevtUNheLqdjBe2UbzW06h45FK4YfnXZWxjqwcXFI46OEVKSlzNj/slsGkYW0IaUgyHyxlyOhPHP41Fd6ZZ31qttcQK0CyrMIwMKWVtwJHfnr61a2z/wDPpN+a/wCNG2f/AJ9ZvzX/ABrjOwiNnatG0bW0BjcBWQxjDAdARjoO1Bs7U5zawc5z+7Ht7ew/IVNtnz/x6y/mv+NJtn/59ZvzX/GgCH7DZ5Y/ZLfLKVY+UvKk5IPHTPaljtLaFi0VtDGxUISkYB2joOO3tUu2f/n1m/Nf8aXbP/z6y/mv+NAEBsbRlCm0tyoIIBiXAx07du3pStZ2rFi1rASxJYmMHJIwSeO44NS7Z/8An1m/Nf8AGqr6jFHqkWmOrC9liaZIcrlkU4J60AStZ2rOztawFmUIzGMZKjoDx09qctvCsvmrDGJDn5wgDc9effA/KpNs/wDz6y/mv+NJtn/59ZvzX/GgBaa/3ov+uqf+hCl2z/8APrN+a/406O3uJZ4w0TRRowZmYjJx0AwfXFAGpRRRQAU2QkRsR1ANOpsn+qf/AHTQgMtZZOMyv/30azbK71CysmtJNJ+0LvkJcXCAOrMT0PsavjoPpUV1bJd27QSNIqNwTG5QkemRXVFrZrQ5pJvVPU5rRfEdtq750vR53aGdEYzXC8DDYUZ7cGuoaWeRbGae0+xzlpA0YcMRwccj161jWnhey0qUT6Vvt5wQcu7Op+q5561qKt/JPG93dRSKmcKkW05Ix1ya1qunKV4bed7/AKo5aUakVyyXba1t/ky35sn/AD1f/vo0ebJ/z1f/AL6NMorCx2XH+bJ/z1f/AL6NHmyf89X/AO+jTKKLBcf5sn/PV/8Avo0ebJ/z1f8A76NMoosFx/myf89X/wC+jR5sn/PV/wDvo0yiiwXGXcKX1pLaXa+dbzKUkjc5VlPUEVKruqhVdgAMAA9KbRRYLj/Nk/56v/30aPNk/wCer/8AfRplFFguP82T/nq//fRo82T/AJ6v/wB9GmUUWC4/zZP+er/99GjzZP8Anq//AH0aZRRYLj/Nk/56v/30aPNk/wCer/8AfRplFFguP82T/nq//fRo82T/AJ6v/wB9GmUUWC4/zZP+er/99GlSWTev7x/vD+L3qOlX/WJ/vD+dKwXNeiiisDcKKKKACiiigDE8Y/8AIla5/wBeE3/oBrTsf+Qfbf8AXJf5Cszxj/yJWuf9eE3/AKAa07H/AJB9t/1yX+QoAsUUUUAFFFFAGDc/8fUv++afY/8AH5H9T/KmXP8Ax9S/75p9j/x+R/U/yrqfwHEv4nzNuiiiuU7QooooAKK8x0u78RWui/25HK/l4dG+13TTrO7ThEYJ/AFGehGeBWtP4m1KPUJ7OSS1kZJpLVrVUZZdqwl/Pzu4UkdMYwRzmgDuKK8+svGGqfb7W1W1gaIQwgQF/wB5MGgEhdCWLH5vl+6RwcnNDeJdTutPsbiPW9PXfd2huDDAf3Cybt0bktgYIAzkH1A4oA9BooooAKKKKAMW/wD+P1/oP5VWqzf/APH6/wBB/Kq1dcPhRw1PiY+H/WfhVg9Krw/6z8KsdqmW5pT2NgdKKzvss/8AlqX7LP8A5asOVdzou+xoUVn/AGWf/LUfZZ/8tRyruF32NCis/wCyz/5aj7LP/lqOVdwu+xoUVn/ZZ/8ALUfZZ/8ALUcq7hd9jQorP+yz/wCWo+yz/wCWo5V3C77GhRWf9ln/AMtR9ln/AMtRyruF32H3/WP8f6VRl/1Z/CppYniI39+nOahl/wBWfwrWOxlPqV61tM/49T/vmsmtbTP+PU/75p1fhM6HxF2iiiuc6wooooAKKKKACiiop2KoCpxzQBLRVLzZP75o82T++aADVzZrpF22oRiSzETGZShcFMc8Dk1neDZNNl8KWMmkxqloycBYygLfxEA++ea0DI7KVY5BGCD3pkCra28dvbqsUMahURBgKB0AFAGjRVLzZP75o82T++aALtFVYJHafaWyNpP6ilmkdZCAxAxQBZoql5sn980ebJ/eNAF2uUu5dBHxFsoZrdTq7WztG/ksWxxghsYwAH/P3re86TON5zURjRrpLkopnRCiyFRuCkgkZ9OB+VAGlRVLzZP75o85zn5zx1oAu0VS82T++aPOkBX5j94D9aALtFFFABTZP9U/+6adTZP9U/8AumhAZA6D6UtIOg+lLXQYBRRRQAVheK/Eq+FtMt71rKW7EtykBjiOGAIJLAYOcBTx3rdqjqek2+qmyNw0g+x3SXUewgZdc4B9uTQwOZj+Itld3eox2UCyWto1sI7x3IjuPNk8vKgKTgHIB6Ejt1rWfxloSC+Y3UvlWSyPLKLeTyyIzh9rYwxU8EA0y78GaVdTzSASW6ypbJ5UG1UQQSeYm0Y4+Y81E/gfT3tL+y+3aiLG7SZPsomHlw+a25yox1JzjdnGTip1HoWF8ZaG11BbfaZVkmKAb7aRQhckIHJGELY4Bxnj1pIvGugTW13cpet5NoQJHMDgMS+wBOPmO7jA5zReeEdPvdTN7JPdqsjwST2ySARTvD/q2YYzkYHQjOBmqf8Awr/STLfSvcXry3ewmTzFVoysnmKwwoywbHzNk446UahoJe+PbGK402GytLu8N3NLFJthdWg8sZcMu0ncP7uB65xUv/Ca28vgu18SwWM5huZIY1gl/dsPMkVM5xyBuzkcHFWbLwnY2d1bXXn3U1zDPPcPLK4JmklXa5bAA6AYAxjFInhGxTwvB4eNxdNZW8sckRZhvUI4dVzjkAgD1x3o1DQhuPHehwi9WOS4mltY53Ma2zjzDD/rFViMEjvg9Oakg8aaPLp32yWSeAC3guJI5YWDIszbUyMc5bjj69KX/hDtMOwO9wyq1420uMH7T/rB0/L0qlP8PtPuIoon1HUtq28NvIBIo85IX3x7/l/hPHGM96NQ0NCPxjoUl/NZfbGSWEzK7SQusYMXMgDkbSVHPB6VLpvinRtWs7u6tLvMVogkn8yNkKIV3BiCM4IBIPtVZ/BmlzHExnkQz3U7IXGGNwpWQcDpg8elS6N4Ws9Es7q2t7i5kFwixs7lVZVClQF2qBnB69SetPUNCJfG+gPpiagt3L5DyiKMG3cPIxXcNq4yfl5yO1Nfx14eRS4vJJIxbJdtJFbu6LExIDFgMAZB6+lU0+HOjx2ZhE90ZftIulmIjyjhNnCbNnKk5+Xk89a0rPwlptml3GpmljurJLGVZWBDRrvwenU72z+FLUNCO48YaZb6qbVriJYYVuDczPuHlmFUZgOMMAHGefYZpz+NNDjsVu5J7iNWl8lY5LWRZWbbu4QjJG3nPTFVE+H+irp1rYyNdTQwW9xbkySZaUTkF2c45b5Rg1Jc+CbO9tYo7zUdRubiGbzorqd0d0OzZgKV2Y29tvXnrRqGhv2V7bajYwXtnMs1tOgkikXoynoanqtp9jFpunW9jAXMUCBFLnLEDuT61ZqhBRRRQAUjSJCPNldUjQ7mdjgKB1JNLSgBmUEAgkAg9+aAMrTviX4Q1TULy0ttbtc2oXfLJIEjYnPCMxG7GOcccitP/hLvDf8A0H9L/wDAtP8AGm2HhHw/pmoXd9ZaVawTXYXz9iDa23ODt6A8np1rS/s6x/587f8A79L/AIVzm5n/APCXeG/+g/pf/gWn+NH/AAl3hv8A6D+l/wDgWn+NaH9nWP8Az52//fpf8KP7Osf+fO3/AO/S/wCFAGf/AMJd4b/6D+l/+Baf40f8Jd4b/wCg/pf/AIFp/jWh/Z1j/wA+dv8A9+l/wo/s6x/587f/AL9L/hQBy/ivxT4fn8IazFDrmmySPZTKqLdISxKHAAz1rqbH/kH23/XJf5Ck/s6y/wCfO3/79L/hVnpQAUUUUAFFFFAGDc/8fUv++afY/wDH5H9T/KmXP/H1L/vmltHVLqNmICgnJP0rqfwnEv4nzN2ioftdv/z2T86Ptdv/AM9k/OuazOy6JqKh+12//PZPzo+12/8Az2T86LMLol2jGMDHpUN1ZwXtvLBOm6OVDG+CVJU9Rkc0v2u3/wCeyfnR9rt/+eyfnRZhdDooIYI444o1RY0CIAPuqOgHtTvLTBGxcE5Ix1qP7Xb/APPZPzo+12//AD2T86LMLomoqH7Xb/8APZPzo+12/wDz2T86LMLomoqH7Xb/APPZPzo+12//AD2T86LMLoy7/wD4/X+g/lVap711kunZGDKccj6VBXVH4UcU/iY+H/WfhVg9Krw/6z8KsHpUy3NKexsDpRQOlFcx1BVabULS3vbayluI0ubkMYYifmk2jLY+gNWa4/WfDmr6jrU+rQXUcUls0P2KEqCHCHc25sZXcWZTjsBQB1+Qehpa4P8A4R3VDfX+oppdvDeNexToI5wqSRRyZCcDhmGWJPc46AUg8I6tdRSvO8UFyYb/AMl1mZvJlmlDRkcDouRnt2oA7a7vLextXurqZYoE+9Ix4XnHNVNQ1/S9Ll8q8vEik+T5MFm+YkLwATztb8jWPoHht4NG1Kw1CLZb3uVMAlVgqlArYCqAueTx9etZsHhLWZ7O1kvrpU1H+0IpJ54JOVhijaNNpIPJzuIx1dqAOstdd0u9mhhtr+CWWaEzxorcsgbaSB7Hg+hq1aXcF9aRXVrKssEqh45F6MD0IrkrjwU8d+s+nS+VJb2xa2uZWLyfaDKzsX9VbcQ3sT6Ct3wxp9xpXhfTLC7CC4t7dI5AhyoYDnB7igDWooooApX/AFj/AB/pVGX/AFZ/Cr1/1j/H+lUZf9WfwraGxjU6letbTP8Aj1P++aya1tM/49T/AL5qqvwmVD4i7RRRXOdYUUUUAFFFFABUNz9wfWpqhufuD60AVar397Dpunz3s+7yoELsFGSfYDuSeB9asVz1xqPh3xTZtY/bRdQiWNpIotwLfP8ALkYzs3Dk9OOtAFk+KdHTTIr+a8WGOWA3Ajf/AFgQfeyo5yMEfUU+38R6XP5h+2QxhMEF5B8ykLhsdRy6jBweR61Ug8G6TbJNFb/aY4Z4pIJIVmO142LHb64BdiPTNNHhXQ3u41d5JriGQXTK8wLN8qplgOqny1P1XNAG1Z39nqEbyWd1FcIjbGaJgwB9KsVm6LoVj4ftGtbBSsbNn5iCeBgDOBnA9cmtKgCS3/4+f+AH+Ypbj/Wn6Ulv/wAfP/AD/MUtx/rT9KAIq5PxNomsX2u2moaU6oYrZrclpMDEjYfj1CncPdcVa8Q/bTqengDUzpZV/O/s0/vPNyuzdjnZjd079aojVvFskzRjTY4gZghdrckRDc44+b94NoQ7hgZbFAFTRtD8SaRBbQRrttk8pJfJkj85kXzOjMDnkpnPOM4q2LTxmiWh+2+ZIzM0oJiCofNGA3y5ZPLB6c7jWc114qjml1eSzkeQrEy2z7kjixbMzfxYx5mAc9/wqey8UeIbyEy21kLuEzNCk0dqQCVkjGWG47RtaT8V/CgCeGDxviAPcDIlbLF4uRvXBcYPy7NwCqc5xz6SeHtA1XSdQs5Jpp2tyl19oTzlI8xpdyMwA+bK9+oPtUR1bxeVtI/7PUSXAfzGW2O2EEsq5Jb7wwrHOAd1V4dT8WwWvmDT5ZZnji3ySW7EtIIs7dm4BQX+UsOB170Ad5SHqv8AvL/OsHR77Xp9Wki1KzSK0KylCsZGwq4Cgtn5tyknoOlbx6r/ALy/zoA0aKKKACmyf6p/9006muC0bAdSCKEBkDoPpS1KLWfA/d/qKPs0/wDzzP8A30K3ujCzIqKl+zT/APPM/wDfQo+zT/8APM/99Ci6HZkVFS/Zp/8Anmf++hR9mn/55n/voUXQWZFRUv2af/nmf++hR9mn/wCeZ/76FF0FmRUVL9mn/wCeZ/76FH2af/nmf++hRdBZkVFS/Zp/+eZ/76FH2af/AJ5n/voUXQWZFRUv2af/AJ5n/voUfZp/+eZ/76FF0FmRUVL9mn/55n/voUfZp/8Anmf++hRdBZkVFS/Zp/8Anmf++hR9mn/55n/voUXQWZFRUv2af/nmf++hR9mn/wCeZ/76FF0FmRUVL9mn/wCeZ/76FH2af/nmf++hRdBZkVFS/Zp/+eZ/76FH2af/AJ5n/voUXQWZFSr/AKxP94fzqT7NP/zzP/fQpVtpt6kx4AYHqKLoLM0qKKKwNgooooAKKKKACiiigAooooAKKKKAMG5/4+pf981FUtz/AMfUv++airsWxwS3YUUUUyQooooAKKKKACiiigAooooAKKKKACiiikA+H/WfhVg9Krw/6z8KsHpUS3N6expC6hx/rBR9qh/56Cm/Y4sfxfnR9ii/2vzrn906dR32qH/noKPtUP8Az0FN+xRf7X50fYov9r86fuhqO+1Q/wDPQUfaof8AnoKb9ii/2vzo+xRf7X50e6Go77VD/wA9BR9qh/56Cm/Yov8Aa/Oj7FF/tfnR7oajvtUP/PQUfaof+egpv2KL/a/Oj7FF/tfnR7oajvtUP/PQUfaof+egpv2KL/a/Oj7FF/tfnR7oakF3KkhTY2cZzVOX/Vn8KtXUKQlNuec5yaqy/wCrP4VpDYyn1K9a2mf8ep/3zWTWtpn/AB6n/fNVV+EyofEXaKKK5zrCiiigAooooAKhufuD61NUNz9wfWgCrXHW/gV0S1FxqzStaBI7fbAECxiTzCDydxJAGe2OldjRQBxY+Hluv2UR6jPEILP7MTGCp3YYGRcNwTu5BznAqWTwLHI4kW4topPIiicR2YCP5chcZXd905wy55wOa6+kBDKGUgg8gjvQBxU/gZ7bTbhbG4afUZBAkFzIQhtth5Ydcj/Z9MCuwtLWKxs4LSAYigjWNB7AYqaigCS3/wCPn/gB/mKW4/1p+lJb/wDHz/wA/wAxS3H+tP0oAirnvF2r3+jWdjPYKrFrnEyMm4tEqM7gehwpwa6GigDgbLx3cAyDULVZVuL0RwRgbCkDCMrnIIY/vBkcd6mPxBjtdP8ANfSfKwqPHEs3DIwc8fLgMNh475HNdxx7UnHtQBxdx8Qlga6A0t38r7q+cAw/e+X+8GPkHfvwR61uaHrk2szXYbT2torfYu55QzMzIrkYA7BuuTmr9vptla3U9zDAqzz/AOtkJLFhnOOTwM9hxVqgApD1X/eX+dLSHqv+8v8AOgDRooooAKKKKACiiigAooooAKKKKACiiigAooooAKKKKACiiigAooooAKKKKACiiigAooooAKKKKACiiigAooooAKKKKACiiigAooooAKKKKACiiigDBuf+PqX/AHzUVS3P/H1L/vmoq7FscEt2FFFFBIUUUUAFFFFABRRRQAUUUUAFFFFABRRRQA+H/WfhVg9Krw/6z8KsHpUS3N6exsDpRQOlFcx1HLav4jvLTxTHpEDWsaNbpNvmhlkLFnZcDZwPu9T61O3jKxEksS2t480NwlrJGsYysrEhU5OMkANnptIPert7oFveaouo/aby3uBGsTG3nKB1ViwBHfkn86z7zwZYz+WbeWa2k+0JPNIsjbpSrl8k5+9lj83YcdOKABvG+mohaSG7jEcMs0+6MfuBGxRg3PXcMDGc59OaY3jzS1sxOYrgnzzAyLsO1tu/727Ycg8YbJPHXir0XhTSI4XiMDyLJA9vJ5kjMZFdy7FjnJYsSc9aZL4T0+eya1lmvnV2Yu7XTlnBG0qTnkYAGPx680AVtQ8ZW1v/AGrDb28zXNjayT/vFCqSse/BGdwHI5xjORnIqnpHjV7kTLcJBdsHhjgbT84lkkVmMeHIwVC5JJxg1qTeENInkdpEnZGheFYzMxSNXTY20Z4JXj/69TXfhnTbuYzssqT7I1WWKUqy+Xu2MCO43sM9wcUAV/8AhMdMNncXOy4C29v58qmPDKPMaMrjP3gyMDVQ+ObaBbj7ZZTwOl7LaxJ5keZfLGWYEsAOOxPcAZq1P4K0a4hSEpcJGIjE4S4dfNUsX+fn5juJbJ7k+tTT+FdOmlllBuYpHnNwHinZSjsu1ivoGHUdO9AGpZ3cN/ZQXluxaGeNZEJGMqRkcVPUcEKW1vHBECI41CqCSTgcdTyakoApX/WP8f6VRl/1Z/Cr1/1j/H+lUZf9WfwraGxjU6letbTP+PU/75rJrW0z/j1P++aqr8JlQ+Iu0UUVznWFFFFABRRRQAVDc/cH1qaobn7g+tAFWiikYblIyRkYyOooAytUvXbNrbgknh2Hb2rB0DxCLO5+wXhKwM5EcjdEOeh9j+lb80MtscyZkj/56qOR/vD+ormrDSZb+d2tlVk3nNzKv7tef4VP3z7nivUpql7Fxe3fz/roeDzYj6zz/a7eX9ddjuqKitYDbW0cJlklKDG+Q5ZvrUteY99D3VtqSW//AB8/8AP8xS3H+tP0pLf/AI+f+AH+Ypbj/Wn6UhkVFFFAHJa1JC3imGG6mMUDKgdgcYHNc54uvLjTNYEGhQpeWvlhmczZ2vk8Zzzxg1peLPNTxOsv2OW4iESZVUJDdeMgVDpuq29rfxTTeHpiinnbGSR7gEV83XX7+UHC93v2OKSXM011G+EL67udStDeRCGZnYFFbIxg4r0auEtLk6h47hu7fT57a2Yn78RXop5PYZru69PLockJJd3+hvQVk/UKQ9V/3l/nS0h6r/vL/OvRNjRooooAKKKKACiiigAooooAKKKKACiiigAooooAKKKKACiiigAooooAKKKKACiiigAooooAKKKKACiiigAooooAKKKKACiiigAooooAKKKKACiiigDBuf8Aj6l/3zUVS3P/AB9S/wC+airsWxwS3YUUUUEhRRRQAUUUUAFFFFABRRRQAUUUUAFFFFAD4f8AWfhViqqsVbIqTzz/AHRUtO5rCSS1ND7c3/PNfzpftzf881/Os7zz/dFHnn+6Kj2a7GntfM0ftzf881/Oj7c3/PNfzrO88/3RR55/uij2a7B7XzNH7c3/ADzX86Ptzf8APNfzrO88/wB0Ueef7oo9muwe18zR+3N/zzX86Ptzf881/Os7zz/dFHnn+6KPZrsHtfM0ftzf881/Oj7c3/PNfzrO88/3RR55/uij2a7B7XzNH7c3/PNfzo+3N/zzX86zvPP90Ueef7oo9muwe18y3NOZiuVAx6Gq8v8Aqz+FM88/3RTWlLLjApqNiZTTGVraZ/x6n/fNZNa2mf8AHqf980VfhFQ+Iu0UUVznWFFFFABRRRQAVBc8Rj61PSMquMMoI9CKAM/I9R+dGR6j86veTF/zyT/vkUeTF/zyT/vkUAUcj1H50AqAACAB0Aq95MX/ADyT/vkUeTF/zyT/AL5FAFHI9R+dGR6j86veTF/zyT/vkUeTF/zyT/vkUAVbYg3PB/gP8xS3BAmOSOlWljRDlUVT7DFDRo5yyKx9xmgChkeo/OjI9R+dXvJi/wCeSf8AfIo8mL/nkn/fIoApb8dG/Wjf/tfrV3yYv+eSf98ijyYv+eSf98igClvz/F+tJkeo/Or3kxf88k/75FHkxf8APJP++RQBRyPUfnSEjKcj7y/zq/5MX/PJP++RQIYgciNAR/sigB9FFFABRRRQAUUUUAFFFFABRRRQAUUUUAFFFFABRRRQAUUUUAFFFFABRRRQAUUUUAFFFFABRRRQAUUUUAFFFFABRRRQAUUUUAFFFFABRRRQAUUUUAZE9ncPcSMseQWJByKj+w3P/PI/mP8AGtuitFVZi6MW7mJ9huf+eR/Mf40fYbn/AJ5H8x/jW3RT9qw9hExPsNz/AM8j+Y/xo+w3P/PI/mP8a26KPasPYRMT7Dc/88j+Y/xo+w3P/PI/mP8AGtuij2rD2ETE+w3P/PI/mP8AGj7Dc/8API/mP8a26KPasPYRMT7Dc/8API/mP8aPsNz/AM8j+Y/xrboo9qw9hExPsNz/AM8j+Y/xo+w3P/PI/mP8a26KPasPYRMT7Dc/88j+Y/xo+w3P/PI/mP8AGtuij2rD2ETE+w3P/PI/mP8AGj7Dc/8API/mP8a26KPasPYRMT7Dc/8API/mP8aPsNz/AM8j+Y/xrboo9qw9hExPsNz/AM8j+Y/xo+w3P/PI/mP8a26KPasPYRMT7Dc/88j+Y/xo+w3P/PI/mP8AGtuij2rD2ETE+w3P/PI/mP8AGj7Dc/8API/mP8a26KPasPYRMT7Dc/8API/mP8aPsNz/AM8j+Y/xrboo9qw9hExPsNz/AM8j+Y/xo+w3P/PI/mP8a26KPasPYRMT7Dc/88j+Y/xo+w3P/PI/mP8AGtuij2rD2ETE+w3P/PI/mP8AGtGwieG3KyLtO4nGatUVMqjkrMqNJRd0FFFFQaBRRRQAUUUUAFFFFABRRRQAUUUUAFFFFABRRRQAUUUUAFFFFABRRRQAUUUUAFFFFAH/2Q==;strokeColor=none;strokeWidth=102;spacingTop=-3;spacingBottom=-3;spacingLeft=-3;spacingRight=-3;rounded=0;html=1;whiteSpace=wrap;" vertex="1" parent="1">
          <mxGeometry x="-447.57" y="1350" width="1313.54" height="777.78" as="geometry" />
        </mxCell>
        <mxCell id="lYixQbPmd1vxgJkhePmT-3" value="" style="rounded=0;whiteSpace=wrap;html=1;fillColor=#d5e8d4;strokeColor=#82b366;" vertex="1" parent="1">
          <mxGeometry x="-420" y="370" width="260" height="160" as="geometry" />
        </mxCell>
        <mxCell id="lYixQbPmd1vxgJkhePmT-4" value="&lt;font style=&quot;font-size: 14px;&quot;&gt;Windows&lt;/font&gt;" style="rounded=0;whiteSpace=wrap;html=1;" vertex="1" parent="1">
          <mxGeometry x="-395" y="410" width="95" height="30" as="geometry" />
        </mxCell>
        <mxCell id="lYixQbPmd1vxgJkhePmT-5" value="&lt;font style=&quot;font-size: 14px;&quot;&gt;MacOS&lt;/font&gt;" style="rounded=0;whiteSpace=wrap;html=1;" vertex="1" parent="1">
          <mxGeometry x="-280" y="410" width="95" height="30" as="geometry" />
        </mxCell>
        <mxCell id="lYixQbPmd1vxgJkhePmT-6" value="&lt;font style=&quot;font-size: 14px;&quot;&gt;Linux&lt;/font&gt;" style="rounded=0;whiteSpace=wrap;html=1;" vertex="1" parent="1">
          <mxGeometry x="-395" y="470" width="95" height="30" as="geometry" />
        </mxCell>
        <mxCell id="lYixQbPmd1vxgJkhePmT-7" value="&lt;font style=&quot;font-size: 14px;&quot;&gt;Web&lt;/font&gt;" style="rounded=0;whiteSpace=wrap;html=1;" vertex="1" parent="1">
          <mxGeometry x="-280" y="470" width="95" height="30" as="geometry" />
        </mxCell>
        <mxCell id="lYixQbPmd1vxgJkhePmT-8" value="Clients" style="text;html=1;align=center;verticalAlign=middle;resizable=0;points=[];autosize=1;strokeColor=none;fillColor=none;fontStyle=1" vertex="1" parent="1">
          <mxGeometry x="-320" y="370" width="60" height="30" as="geometry" />
        </mxCell>
        <mxCell id="lYixQbPmd1vxgJkhePmT-17" value="" style="shape=image;imageAspect=0;aspect=fixed;verticalLabelPosition=bottom;verticalAlign=top;image=https://azure.microsoft.com/svghandler/dev-box/?width=600&amp;height=315;" vertex="1" parent="1">
          <mxGeometry x="-440" y="350" width="81.91" height="43" as="geometry" />
        </mxCell>
        <mxCell id="lYixQbPmd1vxgJkhePmT-18" value="" style="rounded=0;whiteSpace=wrap;html=1;fillColor=#d5e8d4;strokeColor=#82b366;" vertex="1" parent="1">
          <mxGeometry x="-50" y="370" width="700" height="290" as="geometry" />
        </mxCell>
        <mxCell id="lYixQbPmd1vxgJkhePmT-19" value="" style="rounded=0;whiteSpace=wrap;html=1;fillColor=#d5e8d4;strokeColor=#82b366;" vertex="1" parent="1">
          <mxGeometry x="760" y="371" width="260" height="160" as="geometry" />
        </mxCell>
        <mxCell id="lYixQbPmd1vxgJkhePmT-21" value="" style="shape=image;imageAspect=0;aspect=fixed;verticalLabelPosition=bottom;verticalAlign=top;image=https://media.licdn.com/dms/image/D4D12AQGokvLkE6stQg/article-cover_image-shrink_600_2000/0/1679207878895?e=2147483647&amp;v=beta&amp;t=EliNnxVyOBs8DJ7iaAs8MWvNda4Snb-FNEt_6fldagY;" vertex="1" parent="1">
          <mxGeometry x="390" y="830" as="geometry" />
        </mxCell>
        <mxCell id="lYixQbPmd1vxgJkhePmT-22" value="" style="shape=image;imageAspect=0;aspect=fixed;verticalLabelPosition=bottom;verticalAlign=top;image=https://media.licdn.com/dms/image/D4D12AQGokvLkE6stQg/article-cover_image-shrink_600_2000/0/1679207878895?e=2147483647&amp;v=beta&amp;t=EliNnxVyOBs8DJ7iaAs8MWvNda4Snb-FNEt_6fldagY;" vertex="1" parent="1">
          <mxGeometry x="826.67" y="420" width="126.67" height="66.5" as="geometry" />
        </mxCell>
        <mxCell id="lYixQbPmd1vxgJkhePmT-23" value="POC VNet" style="text;html=1;align=center;verticalAlign=middle;resizable=0;points=[];autosize=1;strokeColor=none;fillColor=none;fontStyle=1" vertex="1" parent="1">
          <mxGeometry x="840" y="370" width="80" height="30" as="geometry" />
        </mxCell>
        <mxCell id="lYixQbPmd1vxgJkhePmT-24" value="Developer Portal" style="rounded=0;whiteSpace=wrap;html=1;" vertex="1" parent="1">
          <mxGeometry x="-20" y="420" width="150" height="100" as="geometry" />
        </mxCell>
        <mxCell id="lYixQbPmd1vxgJkhePmT-25" value="" style="rounded=0;whiteSpace=wrap;html=1;" vertex="1" parent="1">
          <mxGeometry x="160" y="420" width="210" height="210" as="geometry" />
        </mxCell>
        <mxCell id="lYixQbPmd1vxgJkhePmT-26" value="Azure Network Connection" style="rounded=0;whiteSpace=wrap;html=1;" vertex="1" parent="1">
          <mxGeometry x="410" y="420" width="200" height="130" as="geometry" />
        </mxCell>
        <mxCell id="lYixQbPmd1vxgJkhePmT-28" value="" style="shape=image;imageAspect=0;aspect=fixed;verticalLabelPosition=bottom;verticalAlign=top;image=https://encrypted-tbn0.gstatic.com/images?q=tbn:ANd9GcSJK_LShdmXXMDe_xuJV9gHflkSlsY34zBPRA&amp;s;" vertex="1" parent="1">
          <mxGeometry x="188" y="465" width="42.39" height="40" as="geometry" />
        </mxCell>
        <mxCell id="lYixQbPmd1vxgJkhePmT-32" value="" style="shape=image;imageAspect=0;aspect=fixed;verticalLabelPosition=bottom;verticalAlign=top;image=https://encrypted-tbn0.gstatic.com/images?q=tbn:ANd9GcSJK_LShdmXXMDe_xuJV9gHflkSlsY34zBPRA&amp;s;" vertex="1" parent="1">
          <mxGeometry x="248" y="465" width="42.39" height="40" as="geometry" />
        </mxCell>
        <mxCell id="lYixQbPmd1vxgJkhePmT-33" value="" style="shape=image;imageAspect=0;aspect=fixed;verticalLabelPosition=bottom;verticalAlign=top;image=https://encrypted-tbn0.gstatic.com/images?q=tbn:ANd9GcSJK_LShdmXXMDe_xuJV9gHflkSlsY34zBPRA&amp;s;" vertex="1" parent="1">
          <mxGeometry x="308" y="465" width="42.39" height="40" as="geometry" />
        </mxCell>
        <mxCell id="lYixQbPmd1vxgJkhePmT-34" value="" style="shape=image;imageAspect=0;aspect=fixed;verticalLabelPosition=bottom;verticalAlign=top;image=https://encrypted-tbn0.gstatic.com/images?q=tbn:ANd9GcSJK_LShdmXXMDe_xuJV9gHflkSlsY34zBPRA&amp;s;" vertex="1" parent="1">
          <mxGeometry x="208" y="535" width="42.39" height="40" as="geometry" />
        </mxCell>
        <mxCell id="lYixQbPmd1vxgJkhePmT-35" value="" style="shape=image;imageAspect=0;aspect=fixed;verticalLabelPosition=bottom;verticalAlign=top;image=https://encrypted-tbn0.gstatic.com/images?q=tbn:ANd9GcSJK_LShdmXXMDe_xuJV9gHflkSlsY34zBPRA&amp;s;" vertex="1" parent="1">
          <mxGeometry x="271.81" y="535" width="42.39" height="40" as="geometry" />
        </mxCell>
        <mxCell id="lYixQbPmd1vxgJkhePmT-36" value="Azure DevBox Service" style="text;html=1;align=center;verticalAlign=middle;resizable=0;points=[];autosize=1;strokeColor=none;fillColor=none;fontStyle=1" vertex="1" parent="1">
          <mxGeometry x="233.80999999999995" y="370" width="140" height="30" as="geometry" />
        </mxCell>
        <mxCell id="lYixQbPmd1vxgJkhePmT-40" value="" style="rounded=0;whiteSpace=wrap;html=1;fillColor=#d5e8d4;strokeColor=#82b366;" vertex="1" parent="1">
          <mxGeometry x="-460" y="680" width="310" height="120" as="geometry" />
        </mxCell>
        <mxCell id="lYixQbPmd1vxgJkhePmT-41" value="" style="rounded=0;whiteSpace=wrap;html=1;fillColor=#d5e8d4;strokeColor=#82b366;" vertex="1" parent="1">
          <mxGeometry x="-460" y="940" width="310" height="80" as="geometry" />
        </mxCell>
        <mxCell id="lYixQbPmd1vxgJkhePmT-42" value="" style="rounded=0;whiteSpace=wrap;html=1;fillColor=#d5e8d4;strokeColor=#82b366;" vertex="1" parent="1">
          <mxGeometry x="30" y="680" width="623.81" height="480" as="geometry" />
        </mxCell>
        <mxCell id="lYixQbPmd1vxgJkhePmT-43" value="" style="rounded=0;whiteSpace=wrap;html=1;" vertex="1" parent="1">
          <mxGeometry x="360" y="730" width="250" height="390" as="geometry" />
        </mxCell>
        <mxCell id="lYixQbPmd1vxgJkhePmT-44" value="" style="rounded=0;whiteSpace=wrap;html=1;" vertex="1" parent="1">
          <mxGeometry x="64.2" y="810" width="250" height="90" as="geometry" />
        </mxCell>
        <mxCell id="lYixQbPmd1vxgJkhePmT-45" value="" style="rounded=0;whiteSpace=wrap;html=1;" vertex="1" parent="1">
          <mxGeometry x="64.2" y="980" width="250" height="90" as="geometry" />
        </mxCell>
        <mxCell id="lYixQbPmd1vxgJkhePmT-46" value="" style="rounded=0;whiteSpace=wrap;html=1;" vertex="1" parent="1">
          <mxGeometry x="-450" y="701" width="130" height="79" as="geometry" />
        </mxCell>
        <mxCell id="lYixQbPmd1vxgJkhePmT-47" value="" style="rounded=0;whiteSpace=wrap;html=1;" vertex="1" parent="1">
          <mxGeometry x="-290" y="701" width="130" height="79" as="geometry" />
        </mxCell>
        <mxCell id="lYixQbPmd1vxgJkhePmT-48" value="" style="rounded=1;whiteSpace=wrap;html=1;" vertex="1" parent="1">
          <mxGeometry x="390" y="780" width="120" height="60" as="geometry" />
        </mxCell>
        <mxCell id="lYixQbPmd1vxgJkhePmT-49" value="" style="rounded=1;whiteSpace=wrap;html=1;" vertex="1" parent="1">
          <mxGeometry x="710" y="740" width="320" height="80" as="geometry" />
        </mxCell>
        <mxCell id="lYixQbPmd1vxgJkhePmT-50" value="" style="rounded=1;whiteSpace=wrap;html=1;" vertex="1" parent="1">
          <mxGeometry x="710" y="860" width="320" height="80" as="geometry" />
        </mxCell>
        <mxCell id="lYixQbPmd1vxgJkhePmT-51" value="" style="rounded=1;whiteSpace=wrap;html=1;" vertex="1" parent="1">
          <mxGeometry x="710" y="990" width="140" height="180" as="geometry" />
        </mxCell>
        <mxCell id="lYixQbPmd1vxgJkhePmT-52" value="" style="rounded=1;whiteSpace=wrap;html=1;" vertex="1" parent="1">
          <mxGeometry x="890" y="990" width="140" height="180" as="geometry" />
        </mxCell>
      </root>
    </mxGraphModel>
  </diagram>
</mxfile>
